<svg width="13" height="13" viewBox="0 0 13 13" fill="none" xmlns="http://www.w3.org/2000/svg">
<path d="M5.72014 0.88537C5.72014 0.396394 6.10046 0 6.56961 0C7.03876 0 7.41908 0.396394 7.41908 0.88537V4.20551C7.41908 4.69448 7.03876 5.09088 6.56961 5.09088C6.10046 5.09088 5.72014 4.69448 5.72014 4.20551V0.88537Z" fill="#00A0FF"/>
<path d="M11.8796 4.26627C12.3243 4.11047 12.806 4.3599 12.9555 4.82339C13.105 5.28688 12.8657 5.78891 12.421 5.94472L9.40148 7.00262C8.95678 7.15842 8.4751 6.90899 8.32561 6.4455C8.17613 5.98201 8.41544 5.47997 8.86014 5.32417L11.8796 4.26627Z" fill="#00A0FF"/>
<path d="M10.7377 11.595C11.013 11.991 10.9282 12.5446 10.5484 12.8315C10.1685 13.1184 9.63734 13.03 9.36204 12.6341L7.49281 9.94565C7.21752 9.5497 7.30231 8.99613 7.6822 8.7092C8.06209 8.42228 8.59322 8.51065 8.86852 8.9066L10.7377 11.595Z" fill="#00A0FF"/>
<path d="M1.12037 4.26627C0.675673 4.11047 0.193992 4.3599 0.0445062 4.82339C-0.10498 5.28688 0.134337 5.78891 0.579035 5.94472L3.59852 7.00262C4.04322 7.15842 4.5249 6.90899 4.67439 6.4455C4.82387 5.98201 4.58456 5.47997 4.13986 5.32417L1.12037 4.26627Z" fill="#00A0FF"/>
<path d="M2.26225 11.595C1.98695 11.991 2.07175 12.5446 2.45164 12.8315C2.83153 13.1184 3.36266 13.03 3.63795 12.6341L5.50718 9.94565C5.78247 9.5497 5.69768 8.99613 5.31779 8.7092C4.9379 8.42228 4.40677 8.51065 4.13148 8.9066L2.26225 11.595Z" fill="#00A0FF"/>
</svg>
