<svg width="62" height="62" fill="none" xmlns="http://www.w3.org/2000/svg"><path d="M51.13 18.306a7.748 7.748 0 0 1-5.338-3.472l-9.948 5.51v1.937l9.948 5.51a7.746 7.746 0 0 1 5.316-3.469c.155-1.017.236-2.049.236-3.07 0-.986-.074-1.977-.214-2.945zm-6.567 13.663l-8.72-4.844-6.78-1.938-18.18-1.286.002.322.011.145a20.277 20.277 0 0 0 2.217 6.56l15.605 28.745a2.596 2.596 0 0 0 4.564.001l12.653-23.319a7.703 7.703 0 0 1-1.373-4.386zm-15.5-14.531l6.78-1.938 8.72-4.844c0-1.324.333-2.57.919-3.66C41.642 3.111 36.527.97 31.06.97h-.121c-9.982 0-18.608 7.436-20.064 17.296l-.01.072v.389l18.197-1.288z" fill="#E1B0C4"/><path d="M35.844 39.719h-1.938v1.937h1.938V39.72zm-3.875 0H30.03v1.937h1.938V39.72zm-3.875 0h-1.938v1.937h1.938V39.72zM52.313 15.5a4.85 4.85 0 0 0 4.843-4.844 4.85 4.85 0 0 0-4.843-4.844 4.85 4.85 0 0 0-4.844 4.844 4.85 4.85 0 0 0 4.843 4.844zm0-7.75a2.91 2.91 0 0 1 2.906 2.906 2.91 2.91 0 0 1-2.907 2.906 2.91 2.91 0 0 1-2.906-2.906 2.91 2.91 0 0 1 2.907-2.906zm0 19.375a4.85 4.85 0 0 0-4.844 4.844 4.85 4.85 0 0 0 4.843 4.843 4.85 4.85 0 0 0 4.844-4.843 4.85 4.85 0 0 0-4.843-4.844zm0 7.75a2.91 2.91 0 0 1-2.907-2.906 2.91 2.91 0 0 1 2.907-2.907 2.91 2.91 0 0 1 2.906 2.907 2.91 2.91 0 0 1-2.907 2.906zM33.906 20.344H31.97v1.937h1.937v-1.937z" fill="#333"/><path d="M52.313 23.25a8.672 8.672 0 0 0-6.804 3.276l-.797-.441c.533-1.531.82-3.13.82-4.773 0-1.642-.286-3.24-.82-4.772l.798-.441a8.757 8.757 0 0 0 8.325 3.146c3.773-.642 6.709-3.759 7.14-7.577a8.761 8.761 0 0 0-2.16-6.82 8.729 8.729 0 0 0-6.502-2.91c-4.613 0-8.4 3.6-8.7 8.137l-2.143 1.19C38.734 8.416 34.98 6.782 31 6.782a14.45 14.45 0 0 0-13.963 10.536l-13.246.938a3.083 3.083 0 0 0-2.822 3.058A3.085 3.085 0 0 0 3.8 24.37l13.238.937A14.448 14.448 0 0 0 31 35.844c3.98 0 7.734-1.634 10.47-4.486l2.143 1.191a8.712 8.712 0 0 0 8.716 8.136c.572 0 1.149-.056 1.722-.167 3.411-.663 6.15-3.4 6.81-6.81.507-2.61-.155-5.264-1.819-7.282a8.697 8.697 0 0 0-6.73-3.176zm-8.72-1.938c0 1.312-.208 2.59-.6 3.821l-6.22-3.444c.013-.126.04-.248.04-.377 0-.128-.027-.25-.038-.376l6.22-3.444c.39 1.23.599 2.51.599 3.82zm1.938-10.086v-.57a6.79 6.79 0 0 1 6.782-6.781A6.79 6.79 0 0 1 57.37 6.14c1.304 1.459 1.9 3.345 1.677 5.31-.33 2.92-2.659 5.395-5.54 5.886-2.715.46-5.425-.725-6.9-3.025l-.492-.764-10.013 5.545a3.866 3.866 0 0 0-3.166-1.654 4 4 0 0 0-.603.06l3.776-1.067 9.421-5.205zM34.875 21.312a1.94 1.94 0 0 1-1.938 1.938A1.94 1.94 0 0 1 31 21.312a1.94 1.94 0 0 1 1.938-1.937 1.94 1.94 0 0 1 1.937 1.938zM31 8.72c3.28 0 6.39 1.268 8.727 3.515l-4.255 2.364-6.578 1.88-9.784.692A12.52 12.52 0 0 1 31 8.72zM3.936 20.187l25.194-1.783 2.257-.637a3.878 3.878 0 0 0-2.187 2.578H3.476a1.06 1.06 0 0 1 .46-.158zm-.457 2.094H29.2a3.878 3.878 0 0 0 2.16 2.564l-2.031-.588-25.383-1.818a1.098 1.098 0 0 1-.467-.158zM31 33.906a12.523 12.523 0 0 1-11.89-8.451l9.783.693 6.578 1.879 4.256 2.364A12.568 12.568 0 0 1 31 33.906zm27.96-.566c-.513 2.642-2.635 4.763-5.278 5.277-2.038.397-4.11-.118-5.68-1.412a6.767 6.767 0 0 1-2.47-5.236v-.57l-9.218-5.12-3.98-1.152c.2.03.397.06.603.06 1.31 0 2.465-.656 3.167-1.654l10.013 5.545.492-.764a6.753 6.753 0 0 1 5.703-3.127c2.034 0 3.941.901 5.236 2.47 1.294 1.57 1.808 3.641 1.412 5.683z" fill="#333"/></svg>