<svg width="62" height="62" fill="none" xmlns="http://www.w3.org/2000/svg"><path d="M7.46 8h11.166l-.332-4h-10.5L7.46 8zm30.834 14h13.5l-.333-4H38.627l-.334 4zm17.75 18h-22v14h22V40z" fill="#E1B0C4"/><path d="M21.13 26L18.965 0H7.123L4.957 26h5.087v22.136a2.814 2.814 0 0 0-1.945 3.238L10.225 62h5.639l2.125-10.627a2.814 2.814 0 0 0-1.946-3.238V26h5.088zM8.965 2h8.16l1.832 22H7.131L8.964 2zm7.063 48.98L14.224 60h-2.36l-1.805-9.02a.82.82 0 0 1 .803-.98h4.361a.82.82 0 0 1 .804.98zM14.043 48h-2V26h2v22zm37.924-19.205l-1.923-.549V26h3.087L50.963 0h-11.84l-2.168 26h3.087v2.246l-1.922.549a7.028 7.028 0 0 0-5.078 6.73v15.767a6.963 6.963 0 0 0 3.87 6.261l.13.065V62h16v-4.382l.132-.065a6.963 6.963 0 0 0 3.869-6.261V35.525a7.028 7.028 0 0 0-5.077-6.73zM40.964 2h8.16l1.832 22H39.13l1.834-22zm14.08 49.292a4.974 4.974 0 0 1-2.764 4.472l-1.236.618V60h-12v-3.618l-1.236-.618a4.974 4.974 0 0 1-2.764-4.472V35.525a5.02 5.02 0 0 1 3.626-4.807l3.373-.964V26h6v3.754l3.374.965a5.019 5.019 0 0 1 3.627 4.806v15.767z" fill="#333"/><path d="M39.315 32.651a2.997 2.997 0 0 0-2.271 2.911V38h2v-2.438c0-.46.312-.858.757-.971l2.484-.621-.483-1.939-2.487.62z" fill="#333"/></svg>