<svg width="62" height="62" fill="none" xmlns="http://www.w3.org/2000/svg"><g clip-path="url(#clip0)"><path d="M58.887 30.139h-7.92v3.96h7.92v-3.96zm-15.842 0h-7.921v3.96h7.921v-3.96zm-15.842-1.981h-7.921v3.96h7.92v-3.96zm-15.843 0H3.44v3.96h7.92v-3.96zM5.42 13.306h3.96l3.961-9.901-11.882-1.98L5.42 13.306zm15.842 0h3.96l3.961-11.881H17.302l3.96 11.881zM41.065 1.425h-3.96a1.98 1.98 0 0 0-1.981 1.98v5.94a1.98 1.98 0 0 0 1.98 1.981h3.96a1.98 1.98 0 0 0 1.981-1.98V3.405a1.98 1.98 0 0 0-1.98-1.98zm13.862 0c-3.96 0-5.941 1.98-5.941 1.98l3.96 11.882h3.96l3.961-11.882s-1.98-1.98-5.94-1.98z" fill="#E1B0C4"/><path d="M14.717 2.63L0 .178l4.43 13.29v12.711H2.45v30.694c0 2.73 2.22 4.95 4.95 4.95s4.95-2.22 4.95-4.95V26.178h-1.98v-12.68L14.718 2.63zm-8.307.624v4.112h1.98V3.584l3.575.596-3.255 8.136H6.134L2.919 2.672l3.491.582zm3.96 53.618a2.974 2.974 0 0 1-2.97 2.97 2.974 2.974 0 0 1-2.97-2.97V32.12h3.96v-1.98H4.43v-1.98h5.94v28.713zM6.41 26.178V14.296h1.98v11.882H6.41zM30.556.435H15.928l4.344 13.032v12.711h-1.98v30.694c0 2.73 2.22 4.95 4.95 4.95s4.951-2.22 4.951-4.95V26.178h-1.98V13.467L30.556.435zm-8.304 1.98v4.95h1.98v-4.95h3.578l-3.3 9.901h-2.534l-3.301-9.901h3.577zm3.96 54.457a2.974 2.974 0 0 1-2.97 2.97 2.974 2.974 0 0 1-2.97-2.97V32.12h3.96v-1.98h-3.96v-1.98h5.94v28.713zm-3.96-30.694V14.296h1.98v11.882h-1.98zM41.065.435h-3.96a2.974 2.974 0 0 0-2.971 2.97v5.94c0 1.29.83 2.38 1.98 2.789v9.893l-1.98 4.951v29.894c0 2.73 2.22 4.95 4.95 4.95s4.951-2.22 4.951-4.95V26.978l-1.98-4.95v-9.894a2.966 2.966 0 0 0 1.98-2.788V3.405a2.974 2.974 0 0 0-2.97-2.97zm-3.29 22.773h2.62l1.188 2.97h-4.997l1.189-2.97zm2.3-1.98h-1.98v-8.912h1.98v8.911zm-.99 38.614a2.974 2.974 0 0 1-2.97-2.97V28.158h5.94v28.714a2.974 2.974 0 0 1-2.97 2.97zm2.97-50.496c0 .546-.445.99-.99.99h-3.96a.991.991 0 0 1-.99-.99V3.405a.99.99 0 0 1 .99-.99h.99v4.95h1.98v-4.95h.99c.545 0 .99.443.99.99v5.94zm15.842 6.101L62 3.137l-.433-.433c-.093-.092-2.32-2.27-6.64-2.27-4.321 0-6.548 2.178-6.641 2.271l-.433.433 4.103 12.309v6.58l-1.98 4.951v29.894c0 2.73 2.22 4.95 4.95 4.95s4.951-2.22 4.951-4.95V26.978l-1.98-4.95v-6.581zm-1.98.83v4.95h-1.98v-4.95h1.98zm-2.3 6.93h2.62l1.188 2.971h-4.997l1.189-2.97zm.32-20.743v4.902h1.98V2.464c1.91.183 3.171.855 3.793 1.282l-3.517 10.55h-2.534l-3.516-10.55c.625-.428 1.884-1.1 3.793-1.282zm.99 57.379a2.974 2.974 0 0 1-2.97-2.97V28.157h5.94v28.714a2.974 2.974 0 0 1-2.97 2.97z" fill="#333"/><path d="M55.916 55.882h-1.98v1.98h1.98v-1.98zm-15.841 0h-1.98v1.98h1.98v-1.98zm-15.842 0h-1.98v1.98h1.98v-1.98zm-15.843 0H6.41v1.98h1.98v-1.98z" fill="#333"/></g><defs><clipPath id="clip0"><path fill="#fff" d="M0 0h62v62H0z"/></clipPath></defs></svg>