<svg width="62" height="62" fill="none" xmlns="http://www.w3.org/2000/svg"><path d="M33.906 23.25h-5.812v-3.875h-3.875v-5.813h3.875V9.688h5.812v3.874h3.875v5.813h-3.875v3.875zm-8.202 15.832a2.973 2.973 0 0 1 4.108-.8l5.39 3.592a5.624 5.624 0 0 0 1.61-3.951c0-.874-.207-1.752-.598-2.537L31 24.96l-5.214 10.429a5.704 5.704 0 0 0-.51 3.534l.428.16z" fill="#E1B0C4"/><path d="M19.891 38.344l.812.531 3.174-4.868-.81-.529a14.495 14.495 0 0 1-6.598-12.166c0-8.012 6.518-14.53 14.531-14.53 8.013 0 14.531 6.518 14.531 14.53 0 4.918-2.466 9.466-6.598 12.166l-.81.529 3.174 4.868.812-.53c5.782-3.78 9.235-10.148 9.235-17.032C51.344 10.095 42.218.968 31 .968c-11.218 0-20.344 9.126-20.344 20.343 0 6.885 3.453 13.253 9.235 17.032zM31 2.906c10.15 0 18.406 8.257 18.406 18.407a18.35 18.35 0 0 1-7.559 14.858l-1.059-1.624a16.414 16.414 0 0 0 6.68-13.234c0-9.082-7.387-16.47-16.468-16.47s-16.469 7.388-16.469 16.47c0 5.251 2.48 10.129 6.68 13.234l-1.058 1.624a18.351 18.351 0 0 1-7.56-14.858c0-10.15 8.257-18.407 18.407-18.407z" fill="#333"/><path d="M59.094 42.625h-7.75a1.94 1.94 0 0 0-1.938 1.938V46.5h-4.64a2.891 2.891 0 0 1-1.611-.488l-12.806-8.537a3.926 3.926 0 0 0-2.186-.663 3.948 3.948 0 0 0-3.944 3.943v.277c0 1.322.657 2.55 1.755 3.282l6.411 4.274-.935.935a2.883 2.883 0 0 1-2.055.852h-8.533l-1.516-2.276a16.317 16.317 0 0 1-2.535-6.41 3.507 3.507 0 0 0-3.47-2.939h-.136a3.522 3.522 0 0 0-3.382 4.484l.812 2.842-3.343-3.344c-.694-.693-1.616-1.076-2.645-1.076-.983 0-1.906.384-2.602 1.078-.694.695-1.076 1.62-1.076 2.651 0 .978.38 1.897 1.07 2.587l7.657 7.657a6.766 6.766 0 0 0 3.465 1.854l12.242 2.448a6.83 6.83 0 0 0 1.329.132h22.944c.337.576.955.968 1.669.968h7.75a1.94 1.94 0 0 0 1.937-1.937V44.562a1.94 1.94 0 0 0-1.938-1.937zm-47.408.078a1.582 1.582 0 0 1 1.519-2.016h.136c.776 0 1.432.556 1.558 1.32a18.24 18.24 0 0 0 2.834 7.167l.801 1.201h-2.397a2.89 2.89 0 0 1-2.055-.852l-.626-.625-1.77-6.195zm14.096 15.328l-12.24-2.448a4.825 4.825 0 0 1-2.475-1.324l-7.658-7.657c-.324-.324-.503-.758-.503-1.265 0-.466.181-.904.51-1.233.626-.625 1.814-.692 2.505-.002l6.79 6.792a4.821 4.821 0 0 0 3.426 1.419h13.258c1.293 0 2.51-.505 3.425-1.42l.663-.662 1.441 4.325 1.838-.613-2.042-6.127-7.67-5.114a2.002 2.002 0 0 1-.894-1.67v-.277a2.007 2.007 0 0 1 3.118-1.668l12.805 8.537a4.834 4.834 0 0 0 2.688.813h4.64v9.688H26.731c-.318 0-.638-.031-.95-.094zm31.374 1.063v-3.875H55.22v3.875h-3.875V44.562h3.875v8.72h1.937v-8.72h1.938v14.532h-1.938z" fill="#333"/></svg>