<svg width="62" height="62" fill="none" xmlns="http://www.w3.org/2000/svg"><path d="M47.727 33.7l-1.415-1.415a1.831 1.831 0 0 0 0-2.587c-.69-.691-1.895-.691-2.586 0l-1.415-1.415 1-1a1.831 1.831 0 0 0 0-2.587c-.69-.69-1.895-.69-2.586 0l-1 1-1.415-1.414 2-2a1.831 1.831 0 0 0 0-2.587 1.831 1.831 0 0 0-2.586 0l-2 2-1.415-1.414 1-1c.346-.346.535-.805.535-1.294 0-.488-.19-.947-.535-1.293a1.831 1.831 0 0 0-2.587 0l-1 1-1.415-1.414 1-1a3.835 3.835 0 0 1 5.416 0 3.81 3.81 0 0 1 1.068 2.08 3.838 3.838 0 0 1 3.933.92 3.835 3.835 0 0 1 .92 3.933 3.812 3.812 0 0 1 2.081 1.069 3.835 3.835 0 0 1 .92 3.933 3.812 3.812 0 0 1 2.081 1.068 3.833 3.833 0 0 1 0 5.416zM32.309 45.288l-2.865 2.864-6.977 2.99-10.125 9.113 1.338 1.487 3.4-3.061c.407.205.811.416 1.22.6l.819-1.825c-.147-.067-.292-.147-.438-.216l4.878-4.39 7.026-3.01 3.137-3.138-1.413-1.414z" fill="#333"/><path d="M25.76 10.572L10.595 25.735l3.486 3.486 3.427-3.314.012-.012a2.112 2.112 0 0 1 2.983 0c.708.709.819 1.828.264 2.661l-2.941 4.41L36.273 51.41l15.163-15.163L25.76 10.572zm8.895 24.06a5.148 5.148 0 0 1-7.279-7.28 5.148 5.148 0 0 1 7.28 7.28z" fill="#E1B0C4"/><path d="M31.017 37.14a6.105 6.105 0 0 1-4.348-1.802 6.105 6.105 0 0 1-1.801-4.347c0-1.643.64-3.186 1.801-4.347a6.104 6.104 0 0 1 4.348-1.801c1.642 0 3.186.64 4.346 1.801a6.104 6.104 0 0 1 1.801 4.348c0 1.642-.64 3.185-1.801 4.346a6.1 6.1 0 0 1-4.346 1.801zm0-10.296a4.124 4.124 0 0 0-2.933 1.216 4.116 4.116 0 0 0-1.216 2.933 4.12 4.12 0 0 0 1.216 2.931 4.121 4.121 0 0 0 2.933 1.216 4.124 4.124 0 0 0 2.931-1.216 4.116 4.116 0 0 0 1.216-2.931 4.124 4.124 0 0 0-1.216-2.933 4.117 4.117 0 0 0-2.931-1.216zM16.18 35.438l1.664 1.109 4.588-6.882a4.121 4.121 0 0 0-.514-5.185 4.115 4.115 0 0 0-5.813 0l-6.017 6.017-2 10.003-3.16 3.16c-.085-.174-.18-.344-.262-.52l-1.816.838c.183.395.389.782.59 1.171L.3 48.29l1.415 1.415 8.216-8.217 2-10.002 5.59-5.59a2.112 2.112 0 0 1 2.983 0c.708.708.819 1.828.264 2.66l-4.588 6.883zM4.093 20.17l-1.855-.746c-.522 1.3-.96 2.647-1.3 4.002l1.939.487a29.07 29.07 0 0 1 1.216-3.742zm3.892-6.819L6.4 12.133a30.713 30.713 0 0 0-2.329 3.504l1.736.99a29.15 29.15 0 0 1 2.18-3.275zM.402 35.95c.221 1.38.54 2.76.95 4.099l1.912-.584a28.839 28.839 0 0 1-.887-3.83l-1.975.316zm1.606-4.959c0-1.07.06-2.15.176-3.208l-1.989-.22a31.314 31.314 0 0 0-.178 4.2l2-.047a58.69 58.69 0 0 1-.01-.725zM56.81 13.778a31.473 31.473 0 0 0-2.566-3.328l-1.499 1.324c.867.98 1.675 2.028 2.402 3.115l1.663-1.111zM13.559 7.821l-1.206-1.596a31.472 31.472 0 0 0-3.176 2.752l1.408 1.42c.93-.922 1.93-1.788 2.974-2.576zm46.435 21.842l1.999-.092a31.174 31.174 0 0 0-.473-4.176l-1.968.357c.234 1.284.382 2.599.442 3.911zm.489-8.345a31.129 31.129 0 0 0-1.579-3.897l-1.8.875a29.096 29.096 0 0 1 1.48 3.645l1.9-.623zM20.402 3.987l-.733-1.862a31.02 31.02 0 0 0-3.797 1.802l.98 1.744a28.7 28.7 0 0 1 3.55-1.684zm11.555-1.988c1.31.042 2.626.174 3.914.39l.332-1.973A31.276 31.276 0 0 0 32.02 0l-.064 1.999zm13.749 54.012l1.017 1.724a31.257 31.257 0 0 0 3.469-2.373l-1.238-1.57a29.608 29.608 0 0 1-3.248 2.22zm1.092-49.362a29.043 29.043 0 0 1 3.147 2.362l1.307-1.516a31.366 31.366 0 0 0-3.364-2.525l-1.09 1.679zm-7.102-3.345a28.99 28.99 0 0 1 3.666 1.43l.852-1.81a30.712 30.712 0 0 0-3.92-1.529l-.598 1.909zM56.52 44.823l1.758.955a30.968 30.968 0 0 0 1.753-3.824l-1.872-.707a28.691 28.691 0 0 1-1.64 3.576zm2.774-7.343l1.95.445c.312-1.361.532-2.758.656-4.153l-1.993-.178a28.884 28.884 0 0 1-.613 3.886zm-7.423 13.673l1.439 1.391a30.988 30.988 0 0 0 2.713-3.214l-1.612-1.184a29.387 29.387 0 0 1-2.54 3.007zm-13.403 7.88l.515 1.935a30.718 30.718 0 0 0 3.98-1.354l-.772-1.846c-1.206.504-2.458.93-3.723 1.265zm-16.113 1.74c1.346.39 2.728.69 4.11.895l.29-1.98a28.978 28.978 0 0 1-3.844-.837l-.556 1.922zM23.677.857l.472 1.944a29.19 29.19 0 0 1 3.877-.665L27.82.146a31.269 31.269 0 0 0-4.144.711zM31.015 60l-.34-.003-.018 2.001.358.002a31.4 31.4 0 0 0 3.839-.235l-.246-1.985c-1.182.145-2.39.22-3.592.22z" fill="#333"/></svg>