<svg width="62" height="62" fill="none" xmlns="http://www.w3.org/2000/svg"><path d="M58.134 48.38l-1.614-1.071a15.443 15.443 0 0 0 2.574-8.559 15.465 15.465 0 0 0-9.54-14.312l.746-1.789A17.4 17.4 0 0 1 61.032 38.75c0 3.442-1.002 6.772-2.898 9.63zM31 56.188H18.406C8.791 56.188.97 48.364.97 38.75c0-9.615 7.822-17.438 17.437-17.438v1.938c-8.546 0-15.5 6.954-15.5 15.5s6.954 15.5 15.5 15.5H31v1.938z" fill="#333"/><path d="M52.05 46.719l-1.409-1.33a9.642 9.642 0 0 0 2.64-6.639c0-5.342-4.346-9.688-9.687-9.688h-6.48v-1.937h6.48c6.41 0 11.625 5.215 11.625 11.625 0 2.972-1.125 5.802-3.168 7.969zm-15.23 3.656H18.405c-6.41 0-11.625-5.215-11.625-11.625s5.215-11.625 11.625-11.625h6.782v1.938h-6.782c-5.341 0-9.687 4.345-9.687 9.687s4.346 9.688 9.687 9.688H36.82v1.937z" fill="#333"/><path d="M47.578 45.395l-.999-1.66a5.851 5.851 0 0 0 2.827-4.985 5.818 5.818 0 0 0-5.812-5.813H31V31h12.594c4.273 0 7.75 3.477 7.75 7.75a7.797 7.797 0 0 1-3.766 6.645zM43.594 46.5H18.406c-4.273 0-7.75-3.477-7.75-7.75S14.133 31 18.406 31h6.782v1.938h-6.782a5.818 5.818 0 0 0-5.812 5.812 5.818 5.818 0 0 0 5.812 5.813h25.188c.28 0 .563-.02.836-.06l.278 1.917c-.365.054-.74.08-1.114.08z" fill="#333"/><path d="M53.281 45.531c-.469 0-.93.047-1.382.128a5.755 5.755 0 0 0-4.43-2.065 5.755 5.755 0 0 0-5.147 3.152 5.564 5.564 0 0 0-1.635-.246c-2.877 0-5.266 2.103-5.726 4.852-.029 0-.057-.008-.086-.008a4.85 4.85 0 0 0-4.844 4.843 4.85 4.85 0 0 0 4.844 4.844h18.406c4.273 0 7.75-3.477 7.75-7.75s-3.477-7.75-7.75-7.75zM28.094 38.75a3.879 3.879 0 0 1-3.875-3.875v-8.79c-2.667.394-5.337-.892-6.73-3.14-2.49.782-5.309-.015-7.046-1.957a6.814 6.814 0 0 1-1.68-5.3c.339-3.007 2.757-5.5 5.75-5.929a6.825 6.825 0 0 1 2.176.038 7.697 7.697 0 0 1 7.53-5.922 7.7 7.7 0 0 1 6.406 3.398 5.695 5.695 0 0 1 2.313-.492 5.803 5.803 0 0 1 5.308 3.458 5.657 5.657 0 0 1 2.442-.552 5.787 5.787 0 0 1 5.507 4.02 5.567 5.567 0 0 1 1.41-.144h.002c1.528.037 2.969.69 4.057 1.836 1.086 1.146 1.66 2.618 1.617 4.147a5.785 5.785 0 0 1-5.812 5.642 5.753 5.753 0 0 1-3.008-.853c-1.033 1.291-2.678 2.028-4.403 1.775a6.743 6.743 0 0 1-6.151 3.921 6.75 6.75 0 0 1-1.938-.285v5.129a3.879 3.879 0 0 1-3.875 3.875z" fill="#E1B0C4"/><path d="M55.219 50.375H53.28v1.938h1.938v-1.938zm-2.906 4.844h-1.938v1.937h1.938V55.22zm-8.719-3.875h-1.938v1.937h1.938v-1.937zm-7.75 3.875h-1.938v1.937h1.938V55.22zm-2.906-31a2.91 2.91 0 0 1-2.907-2.907 2.91 2.91 0 0 1 2.907-2.906 2.91 2.91 0 0 1 2.906 2.907 2.91 2.91 0 0 1-2.907 2.906zm0-3.875a.97.97 0 1 0 0 1.938.97.97 0 0 0 0-1.938zM15.5 14.531h-1.938v1.938H15.5V14.53zm31.969 3.875H45.53v1.938h1.938v-1.938zm-5.813-3.875H39.72v1.938h1.937V14.53zm-16.468-3.875H23.25v1.938h1.938v-1.938zm-1.938 8.719h-1.938v1.938h1.938v-1.938zm33.906-5.812a3.879 3.879 0 0 1-3.875-3.876 3.879 3.879 0 0 1 3.875-3.874 3.879 3.879 0 0 1 3.875 3.875 3.879 3.879 0 0 1-3.875 3.874zm0-5.813a1.94 1.94 0 0 0-1.937 1.938 1.94 1.94 0 0 0 1.937 1.937 1.94 1.94 0 0 0 1.938-1.938 1.94 1.94 0 0 0-1.938-1.937zm-8.718-.969a2.91 2.91 0 0 1-2.907-2.906A2.91 2.91 0 0 1 48.438.969a2.91 2.91 0 0 1 2.906 2.906 2.91 2.91 0 0 1-2.907 2.906zm0-3.875a.97.97 0 1 0 0 1.938.97.97 0 0 0 0-1.938zM3.875 16.469a2.91 2.91 0 0 1-2.906-2.907 2.91 2.91 0 0 1 2.906-2.906 2.91 2.91 0 0 1 2.906 2.906 2.91 2.91 0 0 1-2.906 2.907zm0-3.875a.97.97 0 1 0 0 1.938.97.97 0 0 0 0-1.938zm8.719-3.875a3.879 3.879 0 0 1-3.875-3.875A3.879 3.879 0 0 1 12.594.969a3.879 3.879 0 0 1 3.875 3.875 3.879 3.879 0 0 1-3.875 3.875zm0-5.813a1.94 1.94 0 0 0-1.938 1.938 1.94 1.94 0 0 0 1.938 1.937 1.94 1.94 0 0 0 1.937-1.937 1.94 1.94 0 0 0-1.937-1.938z" fill="#333"/></svg>