<svg width="62" height="62" fill="none" xmlns="http://www.w3.org/2000/svg"><path d="M31 5c-4.26 0-8.247 1.16-11.668 3.18C18.48 8.681 18 9.618 18 10.607V27c0 7.18 5.82 13 13 13s13-5.82 13-13V10.608c0-.99-.48-1.926-1.332-2.429A22.884 22.884 0 0 0 31 5z" fill="#E1B0C4"/><path d="M45 8.501l-.434-.298A23.873 23.873 0 0 0 31 4a23.866 23.866 0 0 0-13.566 4.204L17 8.501v5.25c-3.81 3.747-6 8.891-6 14.248v34h2V28c0-4.12 1.446-8.095 4-11.273V27c0 7.72 6.28 14 14 14s14-6.28 14-14V16.727c2.554 3.178 4 7.154 4 11.273v34h2V28c0-5.358-2.191-10.501-6-14.248V8.501zM43 27c0 2.709-.913 5.203-2.433 7.213a16.097 16.097 0 0 0-1.975-1.291l-.952 1.758c.554.301 1.081.653 1.594 1.027C37.082 37.742 34.188 39 31 39c-3.191 0-6.088-1.26-8.24-3.299A13.986 13.986 0 0 1 31 33c1.657 0 3.279.288 4.822.857l.691-1.877A15.894 15.894 0 0 0 31 31a15.98 15.98 0 0 0-9.572 3.207A11.923 11.923 0 0 1 19 27V9.562A21.86 21.86 0 0 1 31 6a21.86 21.86 0 0 1 12 3.562V27zM57 0h-2v3h2V0zm-3.827 4.588l1.414-1.414-2.12-2.121-1.415 1.414 2.121 2.121zM53 5h-3v2h3V5zm-.534 5.951l2.12-2.121-1.413-1.414-2.122 2.12 1.415 1.415zM57 9h-2v3h2V9zm2.535 1.952l1.414-1.414-2.12-2.122-1.415 1.414 2.12 2.122zM62 5h-3v2h3V5zm-3.172-.415l2.122-2.121-1.415-1.414-2.12 2.121 1.413 1.414zM7 10H5v3h2v-3zm-3.83 4.587l1.415-1.414-2.12-2.122-1.415 1.414 2.12 2.122zM3 15H0v2h3v-2zm-.536 5.948l2.12-2.12-1.413-1.415-2.122 2.121 1.415 1.414zM7 19H5v3h2v-3zm2.535 1.952l1.414-1.414-2.12-2.122-1.415 1.414 2.12 2.122zM12 15H9v2h3v-2zm-3.172-.414l2.121-2.122-1.414-1.414-2.121 2.122 1.414 1.414zM60 26h-2v2h2v-2zm0 4h-2v2h2v-2zm2-2h-2v2h2v-2zm-4 0h-2v2h2v-2zM17 0h-2v2h2V0zm0 4h-2v2h2V4zm2-2h-2v2h2V2zm-4 0h-2v2h2V2z" fill="#333"/><path d="M21 42h-2v2h2v-2zm0 4h-2v2h2v-2zm2-2h-2v2h2v-2zm-4 0h-2v2h2v-2z" fill="#333"/></svg>