<svg width="62" height="64" fill="none" xmlns="http://www.w3.org/2000/svg"><path d="M51.13 19.074a7.74 7.74 0 0 1-5.338-3.528l-9.948 5.599v1.968l9.948 5.598a7.74 7.74 0 0 1 5.316-3.524c.155-1.033.236-2.082.236-3.12 0-1.001-.074-2.008-.214-2.993zm-6.567 13.883l-8.718-4.922-6.782-1.969-18.178-1.307v.327l.012.148a20.83 20.83 0 0 0 2.217 6.666l15.604 29.207a2.59 2.59 0 0 0 2.283 1.38 2.59 2.59 0 0 0 2.282-1.379l12.653-23.694a7.914 7.914 0 0 1-1.373-4.457zm-15.5-14.766l6.781-1.968 8.72-4.922c0-1.346.333-2.612.919-3.719-3.84-3.948-8.956-6.125-14.422-6.125h-.121c-9.982 0-18.608 7.556-20.064 17.575l-.01.074v.395l18.197-1.31z" fill="#E1B0C4"/><path d="M35.844 40.832h-1.938V42.8h1.938v-1.968zm-3.875 0H30.03V42.8h1.938v-1.968zm-3.875 0h-1.938V42.8h1.938v-1.968zm24.219-24.609c2.67 0 4.843-2.208 4.843-4.922 0-2.714-2.173-4.922-4.843-4.922-2.671 0-4.844 2.208-4.844 4.922 0 2.714 2.173 4.922 4.843 4.922zm0-7.875c1.602 0 2.906 1.325 2.906 2.953s-1.304 2.953-2.907 2.953c-1.602 0-2.906-1.325-2.906-2.953s1.304-2.953 2.907-2.953zm0 19.687c-2.671 0-4.844 2.208-4.844 4.922 0 2.714 2.173 4.922 4.843 4.922 2.671 0 4.844-2.208 4.844-4.922 0-2.714-2.173-4.922-4.843-4.922zm0 7.875c-1.603 0-2.907-1.325-2.907-2.953s1.304-2.953 2.907-2.953c1.602 0 2.906 1.325 2.906 2.953s-1.304 2.953-2.907 2.953zM33.906 21.145H31.97v1.968h1.937v-1.968z" fill="#333"/><path d="M52.313 24.098c-2.674 0-5.156 1.23-6.804 3.33l-.797-.45c.533-1.555.82-3.18.82-4.849 0-1.668-.286-3.293-.82-4.849l.798-.449a8.685 8.685 0 0 0 8.325 3.198c3.773-.653 6.709-3.82 7.14-7.7.28-2.525-.506-5.05-2.16-6.929a8.669 8.669 0 0 0-6.502-2.958c-4.613 0-8.4 3.658-8.7 8.269l-2.143 1.21C38.734 9.024 34.98 7.364 31 7.364c-6.556 0-12.19 4.37-13.963 10.706l-13.246.953c-1.583.129-2.822 1.493-2.822 3.106 0 1.614 1.239 2.978 2.831 3.108l13.238.952C18.81 32.525 24.443 36.895 31 36.895c3.98 0 7.734-1.66 10.47-4.558l2.143 1.21a8.881 8.881 0 0 0 3.157 6.249 8.628 8.628 0 0 0 5.559 2.017c.572 0 1.149-.056 1.722-.169 3.411-.673 6.15-3.454 6.81-6.919.507-2.653-.155-5.35-1.819-7.4-1.664-2.05-4.117-3.227-6.73-3.227zm-8.72-1.969c0 1.333-.208 2.633-.6 3.883l-6.22-3.5c.013-.128.04-.252.04-.383 0-.13-.027-.255-.038-.383l6.22-3.499c.39 1.25.599 2.55.599 3.882zm1.938-10.249v-.579c0-3.8 3.043-6.89 6.782-6.89 1.928 0 3.773.839 5.058 2.301 1.304 1.483 1.9 3.4 1.677 5.397-.33 2.966-2.659 5.48-5.54 5.98a6.78 6.78 0 0 1-6.9-3.074l-.492-.776-10.013 5.634c-.701-1.014-1.856-1.681-3.166-1.681-.206 0-.405.03-.603.062l3.776-1.085 9.421-5.289zM34.875 22.13c0 1.085-.869 1.968-1.938 1.968-1.068 0-1.937-.883-1.937-1.969 0-1.085.869-1.968 1.938-1.968 1.068 0 1.937.883 1.937 1.968zM31 9.332c3.28 0 6.39 1.288 8.727 3.572l-4.255 2.402-6.578 1.91-9.784.703c1.738-5.116 6.448-8.587 11.89-8.587zM3.936 20.985l25.194-1.81 2.257-.648a3.924 3.924 0 0 0-2.187 2.619H3.476a1.05 1.05 0 0 1 .46-.16zm-.457 2.129H29.2a3.924 3.924 0 0 0 2.16 2.604l-2.031-.597-25.383-1.847a1.087 1.087 0 0 1-.467-.16zM31 34.926c-5.442 0-10.152-3.472-11.89-8.588l9.783.704 6.578 1.91 4.256 2.402A12.464 12.464 0 0 1 31 34.926zm27.96-.576c-.513 2.685-2.635 4.84-5.278 5.363-2.038.402-4.11-.12-5.68-1.435a6.92 6.92 0 0 1-2.47-5.32v-.58l-9.218-5.203-3.98-1.17c.2.031.397.062.603.062 1.31 0 2.465-.668 3.167-1.681l10.013 5.634.492-.777c1.255-1.988 3.387-3.176 5.703-3.176 2.034 0 3.941.915 5.236 2.51 1.294 1.595 1.808 3.7 1.412 5.773z" fill="#333"/></svg>