<svg width="67" height="47" fill="none" xmlns="http://www.w3.org/2000/svg"><path d="M14.707 16.734c8.087 0 14.642 6.555 14.642 14.642 0 8.086-6.555 14.641-14.642 14.641-8.086 0-14.642-6.555-14.642-14.641L0 29.284C0 13.11 13.11 0 29.284 0v8.367a20.78 20.78 0 0 0-14.79 6.126c-.761.76-1.455 1.57-2.081 2.42a14.76 14.76 0 0 1 2.294-.18zm37.651 0C60.445 16.734 67 23.289 67 31.376c0 8.086-6.556 14.641-14.642 14.641-8.086 0-14.642-6.555-14.642-14.641l-.065-2.092C37.65 13.11 50.76 0 66.935 0v8.367a20.78 20.78 0 0 0-14.791 6.126c-.76.76-1.455 1.57-2.08 2.42a14.76 14.76 0 0 1 2.294-.18z" fill="#F5F5F5"/></svg>