<svg width="13" height="13" fill="none" xmlns="http://www.w3.org/2000/svg"><path d="M5.326.107C6.466-.088 7.68-.036 8.76.422c-.246.023-.49.055-.737.075-2.18.23-4.204 1.835-4.86 4.023-.16.49-.173 1.01-.239 1.517.055.612.14 1.236.409 1.792.4.838 1.099 1.542 1.956 1.857a3.153 3.153 0 0 0 2.43-.041c1.065-.448 1.865-1.518 1.996-2.704.07-.827-.044-1.716-.535-2.397-.48-.762-1.331-1.143-2.148-1.377-.052-.591.139-1.18.47-1.657A2.767 2.767 0 0 1 8.97.501c2.17.813 3.804 2.997 4.015 5.382.014.627.051 1.265-.09 1.88a6.525 6.525 0 0 1-2.2 3.744 6.462 6.462 0 0 1-3.392 1.473c-.556.03-1.112.025-1.668-.002-1.166-.182-2.301-.652-3.23-1.414C.865 10.32-.061 8.304.004 6.278a6.672 6.672 0 0 1 1.273-3.626A6.576 6.576 0 0 1 5.326.107z" fill="#E8303F"/></svg>