<svg width="13" height="13" fill="none" xmlns="http://www.w3.org/2000/svg"><path d="M9.127 0H3.873A3.877 3.877 0 0 0 0 3.873v5.254A3.877 3.877 0 0 0 3.873 13h5.254A3.877 3.877 0 0 0 13 9.127V3.873A3.877 3.877 0 0 0 9.127 0zm2.565 9.127a2.565 2.565 0 0 1-2.565 2.565H3.873a2.565 2.565 0 0 1-2.565-2.565V3.873a2.565 2.565 0 0 1 2.565-2.565h5.254a2.565 2.565 0 0 1 2.565 2.565v5.254z" fill="url(#paint0_linear)"/><path d="M6.5 3.138A3.366 3.366 0 0 0 3.138 6.5 3.366 3.366 0 0 0 6.5 9.862 3.366 3.366 0 0 0 9.862 6.5 3.366 3.366 0 0 0 6.5 3.138zm0 5.416a2.054 2.054 0 1 1 0-4.108 2.054 2.054 0 0 1 0 4.108z" fill="url(#paint1_linear)"/><path d="M9.869 3.969a.806.806 0 1 0 0-1.612.806.806 0 0 0 0 1.612z" fill="url(#paint2_linear)"/><defs><linearGradient id="paint0_linear" x1="6.5" y1="12.962" x2="6.5" y2=".101" gradientUnits="userSpaceOnUse"><stop stop-color="#E09B3D"/><stop offset=".3" stop-color="#C74C4D"/><stop offset=".6" stop-color="#C21975"/><stop offset="1" stop-color="#7024C4"/></linearGradient><linearGradient id="paint1_linear" x1="6.5" y1="12.962" x2="6.5" y2=".101" gradientUnits="userSpaceOnUse"><stop stop-color="#E09B3D"/><stop offset=".3" stop-color="#C74C4D"/><stop offset=".6" stop-color="#C21975"/><stop offset="1" stop-color="#7024C4"/></linearGradient><linearGradient id="paint2_linear" x1="9.869" y1="12.962" x2="9.869" y2=".101" gradientUnits="userSpaceOnUse"><stop stop-color="#E09B3D"/><stop offset=".3" stop-color="#C74C4D"/><stop offset=".6" stop-color="#C21975"/><stop offset="1" stop-color="#7024C4"/></linearGradient></defs></svg>