<svg width="13" height="13" fill="none" xmlns="http://www.w3.org/2000/svg"><path d="M5.72.885C5.72.396 6.1 0 6.57 0c.469 0 .85.396.85.885v3.32c0 .49-.381.886-.85.886-.47 0-.85-.397-.85-.885V.886zm6.16 3.381c.444-.156.926.094 1.075.557.15.464-.09.966-.534 1.122l-3.02 1.058a.842.842 0 0 1-1.075-.558c-.15-.463.09-.965.534-1.12l3.02-1.059zm-1.142 7.329a.91.91 0 0 1-.19 1.236.828.828 0 0 1-1.186-.197l-1.87-2.688a.91.91 0 0 1 .19-1.237.827.827 0 0 1 1.187.198l1.869 2.688zM1.12 4.266C.676 4.11.194 4.36.045 4.823c-.15.464.09.966.534 1.122l3.02 1.058a.842.842 0 0 0 1.075-.558c.15-.463-.09-.965-.534-1.12l-3.02-1.06zm1.142 7.329a.91.91 0 0 0 .19 1.236.827.827 0 0 0 1.186-.197l1.87-2.688a.91.91 0 0 0-.19-1.237.827.827 0 0 0-1.187.198l-1.869 2.688z" fill="#00A0FF"/></svg>