<svg width="13" height="13" fill="none" xmlns="http://www.w3.org/2000/svg"><g clip-path="url(#clip0)"><path d="M11.248 0H1.752C.784 0 0 .784 0 1.752v9.496C0 12.216.784 13 1.752 13h4.683l.008-4.646H5.236a.285.285 0 0 1-.284-.283l-.006-1.498c0-.157.127-.286.285-.286h1.204V4.841c0-1.68 1.026-2.594 2.524-2.594h1.229c.157 0 .285.128.285.285v1.263a.285.285 0 0 1-.285.284h-.754c-.815 0-.973.388-.973.956v1.253h1.79c.17 0 .303.148.283.318l-.177 1.497a.285.285 0 0 1-.283.252H8.469L8.461 13h2.787c.968 0 1.752-.784 1.752-1.752V1.752C13 .784 12.216 0 11.248 0z" fill="#475993"/></g><defs><clipPath id="clip0"><path fill="#fff" d="M0 0h13v13H0z"/></clipPath></defs></svg>