<svg width="123" height="45" fill="none" xmlns="http://www.w3.org/2000/svg"><path d="M30.004 33.76l.024.9h.024c.256-.32.564-.568.924-.744.36-.184.736-.276 1.128-.276 1.36 0 2.04.92 2.04 2.76V40h-1.176v-3.48c0-.728-.096-1.224-.288-1.488-.184-.272-.516-.408-.996-.408-.408 0-.78.204-1.116.612-.336.4-.504.868-.504 1.404V40h-1.2v-6.24h1.14zm9.77 3.144h-.6c-.72 0-1.277.124-1.669.372-.384.248-.576.576-.576.984 0 .296.088.532.264.708.184.168.424.252.72.252.504 0 .94-.172 1.308-.516a1.71 1.71 0 0 0 .552-1.284v-.516zm-4.02 1.416c0-.696.291-1.252.875-1.668.592-.424 1.44-.636 2.544-.636h.6v-.06c0-.504-.104-.856-.312-1.056-.2-.2-.556-.3-1.068-.3-.76 0-1.46.18-2.1.54l-.18-.96c.672-.36 1.432-.54 2.28-.54.904 0 1.56.184 1.968.552.408.36.612.936.612 1.728v2.4c0 .568.06 1.128.18 1.68h-1.14a6.405 6.405 0 0 1-.108-.96h-.024c-.224.336-.536.6-.936.792a2.989 2.989 0 0 1-1.332.288c-.568 0-1.02-.16-1.356-.48-.336-.32-.504-.76-.504-1.32zm7.662-6V31h1.272v1.32h-1.272zm0 7.68v-6.24h1.272V40h-1.272zm3.85 0v-9h1.272v9h-1.272zm5.824-5.4c-.8 0-1.2.26-1.2.78 0 .248.091.444.276.588.192.136.52.24.984.312.84.128 1.44.356 1.8.684.36.32.54.772.54 1.356 0 .56-.212 1-.637 1.32-.416.32-1.004.48-1.764.48-.887 0-1.688-.2-2.4-.6l.24-.96c.657.4 1.377.6 2.16.6.785 0 1.177-.28 1.177-.84 0-.272-.093-.48-.276-.624-.177-.152-.497-.264-.96-.336-.825-.136-1.42-.36-1.788-.672-.368-.32-.552-.756-.552-1.308 0-.528.208-.948.623-1.26.416-.32 1.008-.48 1.776-.48.793 0 1.513.16 2.16.48l-.24.96a3.975 3.975 0 0 0-1.92-.48zm10.413 1.512c-.544.36-.924.68-1.14.96-.216.28-.324.556-.324.828 0 .792.54 1.188 1.62 1.188.424 0 .792-.04 1.104-.12.32-.088.68-.244 1.08-.468l-2.34-2.388zm1.008-.636l1.788 1.848v-2.268h1.224v3.54L68.879 40h-1.56l-.648-.66c-1.032.52-2.056.78-3.072.78-1.92 0-2.88-.72-2.88-2.16 0-.432.148-.852.444-1.26.304-.408.832-.864 1.584-1.368l-.12-.12c-.792-.8-1.188-1.524-1.188-2.172 0-.584.22-1.048.66-1.392.44-.352 1.06-.528 1.86-.528.808 0 1.42.164 1.836.492.416.328.624.784.624 1.368 0 .432-.144.84-.432 1.224-.28.384-.772.808-1.476 1.272zm-.756-.792c.592-.392.98-.696 1.164-.912a1.13 1.13 0 0 0 .276-.732c0-.608-.412-.912-1.236-.912-.392 0-.696.084-.912.252a.787.787 0 0 0-.312.66c0 .24.056.46.168.66.12.192.404.52.852.984zM73.863 31h1.2v3.6h.025c.464-.64 1.096-.96 1.896-.96.791 0 1.407.276 1.848.828.448.544.672 1.348.672 2.412 0 1.048-.233 1.852-.697 2.412-.456.552-1.064.828-1.823.828-.832 0-1.477-.34-1.932-1.02h-.025l-.023.9h-1.14v-9zm4.465 5.88c0-.76-.145-1.328-.433-1.704-.287-.384-.691-.576-1.212-.576-.472 0-.86.2-1.164.6-.303.392-.456.932-.456 1.62v.12c0 .696.153 1.24.456 1.632.304.392.692.588 1.164.588.496 0 .892-.196 1.188-.588.305-.392.457-.956.457-1.692zm6.862-3.24v1.008c-.88 0-1.576.24-2.088.72-.512.472-.768 1.096-.768 1.872V40H81.11v-6.24h1.164l.024 1.2h.024c.736-.88 1.692-1.32 2.868-1.32zm1.888.876c.552-.584 1.28-.876 2.184-.876.904 0 1.628.292 2.172.876.552.584.828 1.372.828 2.364 0 .992-.276 1.78-.828 2.364-.544.584-1.268.876-2.172.876-.904 0-1.632-.292-2.184-.876-.544-.584-.816-1.372-.816-2.364 0-.992.272-1.78.816-2.364zm.888 4.044c.32.4.752.6 1.296.6s.976-.2 1.296-.6c.32-.4.48-.96.48-1.68s-.16-1.28-.48-1.68c-.32-.4-.752-.6-1.296-.6s-.976.2-1.296.6c-.32.4-.48.96-.48 1.68s.16 1.28.48 1.68zm6.713-4.8l1.128 5.16h.024l1.068-5.16h1.68l1.068 5.16h.024l1.128-5.16h1.296l-1.68 6.24h-1.62l-1.068-5.04h-.024L96.635 40h-1.62l-1.68-6.24h1.344zm10.955.84c-.8 0-1.2.26-1.2.78 0 .248.092.444.276.588.192.136.52.24.984.312.84.128 1.44.356 1.8.684.36.32.54.772.54 1.356 0 .56-.212 1-.636 1.32-.416.32-1.004.48-1.764.48-.888 0-1.688-.2-2.4-.6l.24-.96c.656.4 1.376.6 2.16.6.784 0 1.176-.28 1.176-.84 0-.272-.092-.48-.276-.624-.176-.152-.496-.264-.96-.336-.824-.136-1.42-.36-1.788-.672-.368-.32-.552-.756-.552-1.308 0-.528.208-.948.624-1.26.416-.32 1.008-.48 1.776-.48.792 0 1.512.16 2.16.48l-.24.96a3.975 3.975 0 0 0-1.92-.48z" fill="#CCC"/><path d="M7.752 26.24c-1.84 0-3.2-.784-4.08-2.352h-.048L3.6 26H1.92V8h1.752v7.56h.048c.88-1.52 2.224-2.28 4.032-2.28 1.568 0 2.8.56 3.696 1.68.896 1.104 1.344 2.704 1.344 4.8 0 2.064-.456 3.664-1.368 4.8-.912 1.12-2.136 1.68-3.672 1.68zm3.312-6.48c0-1.632-.328-2.88-.984-3.744-.64-.864-1.544-1.296-2.712-1.296-1.088 0-1.976.432-2.664 1.296-.688.864-1.032 2.056-1.032 3.576v.336c0 1.552.344 2.752 1.032 3.6.688.848 1.576 1.272 2.664 1.272 1.136 0 2.032-.432 2.688-1.296.672-.88 1.008-2.128 1.008-3.744zm5.805.672c.032 1.36.448 2.432 1.248 3.216.8.784 1.84 1.176 3.12 1.176 1.232 0 2.456-.32 3.672-.96l.48 1.368a9.527 9.527 0 0 1-4.32 1.008c-1.792 0-3.24-.584-4.344-1.752-1.104-1.168-1.656-2.744-1.656-4.728 0-2.016.512-3.6 1.536-4.752 1.04-1.152 2.448-1.728 4.224-1.728 1.728 0 3.064.552 4.008 1.656.96 1.088 1.44 2.656 1.44 4.704 0 .208-.016.472-.048.792h-9.36zm0-1.392h7.68c-.016-1.392-.352-2.464-1.008-3.216-.656-.752-1.56-1.128-2.712-1.128-1.2 0-2.152.384-2.856 1.152-.688.752-1.056 1.816-1.104 3.192z" fill="#999"/><path d="M32.56 15.536h.888c1.488 0 2.56-.2 3.216-.6.672-.416 1.008-1.024 1.008-1.824 0-.768-.272-1.336-.816-1.704-.528-.368-1.408-.552-2.64-.552-.608 0-1.16.048-1.656.144v4.536zm0 2.496v5.448c.56.096 1.16.144 1.8.144 1.328 0 2.296-.24 2.904-.72.624-.496.936-1.248.936-2.256 0-.896-.352-1.552-1.056-1.968-.704-.432-1.88-.648-3.528-.648H32.56zm8.856 2.928c0 1.76-.576 3.08-1.728 3.96-1.152.88-2.952 1.32-5.4 1.32-1.776 0-3.456-.12-5.04-.36V8.6a30.47 30.47 0 0 1 4.8-.36c4.48 0 6.72 1.464 6.72 4.392 0 .992-.328 1.848-.984 2.568-.656.704-1.528 1.16-2.616 1.368v.048c1.312.176 2.344.664 3.096 1.464.768.784 1.152 1.744 1.152 2.88zm6.074-9.768v4.296h7.032v2.568H47.49v5.232h7.512V26H44.13V8.48h10.872v2.712H47.49zM57.344 26l6.072-17.52h3.6L73.112 26h-3.6l-1.248-4.224h-6.168L60.824 26h-3.48zm5.496-6.792h4.656l-2.304-7.776h-.048l-2.304 7.776zM77.908 8.48v10.608c0 2.928 1.144 4.392 3.432 4.392 2.304 0 3.456-1.464 3.456-4.392V8.48h3.312v10.392c0 2.432-.592 4.272-1.776 5.52-1.168 1.232-2.848 1.848-5.04 1.848s-3.872-.616-5.04-1.848c-1.168-1.248-1.752-3.088-1.752-5.52V8.48h3.408zm26.594 0v2.784h-5.016V26h-3.408V11.264h-5.016V8.48h13.44zm5.759 0l3.936 7.848h.048l3.936-7.848h3.792l-6.048 10.56V26h-3.504v-6.96l-6.048-10.56h3.888z" fill="#D88EAD"/></svg>