<svg width="62" height="62" viewBox="0 0 62 62" fill="none" xmlns="http://www.w3.org/2000/svg">
<path d="M33.9062 23.25H28.0938V19.375H24.2188V13.5625H28.0938V9.6875H33.9062V13.5625H37.7812V19.375H33.9062V23.25Z" fill="#E1B0C4"/>
<path d="M25.7038 39.0823C26.2396 38.2976 27.1405 37.7812 28.1625 37.7812C28.7496 37.7812 29.3241 37.9546 29.8123 38.2811L35.2015 41.8742C36.2303 40.8212 36.8125 39.4223 36.8125 37.9227C36.8125 37.0489 36.6052 36.1712 36.2138 35.3865L31 24.9589L25.7862 35.3875C25.3948 36.1712 25.1875 37.0479 25.1875 37.9227C25.1875 38.2608 25.2166 38.596 25.2757 38.9215L25.7038 39.0823Z" fill="#E1B0C4"/>
<path d="M19.8913 38.3441L20.7032 38.875L23.8768 34.007L23.0669 33.4781C18.9352 30.7782 16.4688 26.2299 16.4688 21.3125C16.4688 13.3 22.9875 6.78125 31 6.78125C39.0125 6.78125 45.5312 13.3 45.5312 21.3125C45.5312 26.2299 43.0648 30.7782 38.9331 33.4781L38.1232 34.007L41.2968 38.875L42.1087 38.3441C47.8911 34.565 51.3438 28.1974 51.3438 21.3125C51.3438 10.0953 42.2181 0.96875 31 0.96875C19.7819 0.96875 10.6562 10.0953 10.6562 21.3125C10.6562 28.1974 14.1089 34.565 19.8913 38.3441ZM31 2.90625C41.1496 2.90625 49.4062 11.1629 49.4062 21.3125C49.4062 27.218 46.5978 32.7031 41.8471 36.1712L40.7882 34.5466C44.9888 31.4417 47.4688 26.5641 47.4688 21.3125C47.4688 12.2314 40.0811 4.84375 31 4.84375C21.9189 4.84375 14.5312 12.2314 14.5312 21.3125C14.5312 26.5641 17.0113 31.4417 21.2118 34.5466L20.1529 36.1712C15.4022 32.7031 12.5938 27.218 12.5938 21.3125C12.5938 11.1629 20.8504 2.90625 31 2.90625Z" fill="#333333"/>
<path d="M59.0938 42.625H51.3438C50.2752 42.625 49.4062 43.494 49.4062 44.5625V46.5H44.7669C44.1905 46.5 43.6335 46.3314 43.1549 46.0117L30.349 37.4751C29.699 37.0411 28.9424 36.8125 28.1625 36.8125C25.9887 36.8125 24.2188 38.5814 24.2188 40.7553V41.0324C24.2188 42.3537 24.8756 43.5812 25.9741 44.3135L32.3853 48.5877L31.4495 49.5235C30.9012 50.0727 30.1717 50.375 29.3948 50.375H20.862L19.3459 48.0994C18.0488 46.1532 17.1953 43.9977 16.8107 41.6892C16.5269 39.9861 15.067 38.75 13.3407 38.75H13.205C11.2656 38.75 9.6875 40.3281 9.6875 42.2685C9.6875 42.594 9.73303 42.9185 9.82312 43.2343L10.6349 46.0757L7.29178 42.7316C6.59816 42.0389 5.67591 41.6562 4.64709 41.6562C3.66381 41.6562 2.74059 42.0399 2.04503 42.7335C1.35141 43.4291 0.96875 44.3532 0.96875 45.385C0.96875 46.3634 1.34947 47.2818 2.03825 47.9715L9.69622 55.6285C10.6456 56.5779 11.843 57.2192 13.1605 57.4827L25.4026 59.9307C25.8404 60.0179 26.288 60.0625 26.7317 60.0625H49.6765C50.0127 60.6389 50.6307 61.0312 51.3447 61.0312H59.0947C60.1632 61.0312 61.0322 60.1623 61.0322 59.0938V44.5625C61.0312 43.494 60.1632 42.625 59.0938 42.625ZM11.686 42.7035C11.6453 42.5611 11.625 42.4148 11.625 42.2685C11.625 41.3966 12.3341 40.6875 13.205 40.6875H13.3407C14.1166 40.6875 14.7725 41.2426 14.8994 42.0079C15.3295 44.5877 16.2828 46.9989 17.733 49.1737L18.5341 50.375H16.1374C15.3615 50.375 14.632 50.0727 14.0817 49.5235L13.4559 48.8977L11.686 42.7035ZM25.7823 58.031L13.5412 55.583C12.6005 55.3951 11.7451 54.9368 11.067 54.2587L3.40903 46.6017C3.08547 46.2782 2.90625 45.8442 2.90625 45.3365C2.90625 44.8715 3.08741 44.4327 3.41581 44.1043C4.04163 43.4794 5.23028 43.4116 5.921 44.1023L12.711 50.8942C13.6274 51.8078 14.8432 52.3125 16.1365 52.3125H29.3948C30.6881 52.3125 31.9048 51.8078 32.8203 50.8933L33.4829 50.2307L34.9244 54.5561L36.7621 53.9429L34.72 47.8156L27.0494 42.7015C26.4905 42.3286 26.1562 41.7057 26.1562 41.0324V40.7553C26.1562 39.649 27.0562 38.75 28.1616 38.75C28.5588 38.75 28.9433 38.8662 29.2737 39.0871L42.0786 47.6237C42.8778 48.1556 43.8069 48.4375 44.7669 48.4375H49.4062V58.125H26.7317C26.4139 58.125 26.0942 58.094 25.7823 58.031ZM57.1562 59.0938V55.2188H55.2188V59.0938H51.3438V44.5625H55.2188V53.2812H57.1562V44.5625H59.0938L59.0947 59.0938H57.1562Z" fill="#333333"/>
</svg>
