<svg width="62" height="62" viewBox="0 0 62 62" fill="none" xmlns="http://www.w3.org/2000/svg">
<path d="M47.7269 33.6992L46.3124 32.2847C47.0257 31.5715 47.0257 30.4111 46.3124 29.6979C45.6213 29.0068 44.417 29.0068 43.7256 29.6979L42.3112 28.2834L43.3114 27.2832C44.0246 26.57 44.0246 25.4097 43.3114 24.6964C42.6203 24.0053 41.4159 24.0053 40.7246 24.6964L39.7244 25.6967L38.3099 24.2822L40.3105 22.2815C41.0238 21.5683 41.0238 20.408 40.3105 19.6947C39.5973 18.9815 38.437 18.9815 37.7237 19.6947L35.7231 21.6954L34.3086 20.2809L35.3089 19.2807C35.6549 18.9346 35.844 18.4755 35.844 17.9873C35.844 17.4991 35.6549 17.04 35.3089 16.6939C34.5956 15.9807 33.4353 15.9807 32.7221 16.6939L31.7218 17.6941L30.3074 16.2796L31.3076 15.2794C32.8 13.7871 35.2308 13.7871 36.7231 15.2794C37.3103 15.8666 37.6653 16.5978 37.7913 17.36C39.1256 16.9129 40.662 17.2181 41.7244 18.2803C42.7866 19.3425 43.0928 20.878 42.6446 22.2134C43.4068 22.3394 44.138 22.6946 44.7252 23.2816C45.7874 24.3438 46.0936 25.8793 45.6455 27.2146C46.4077 27.3407 47.1389 27.6958 47.7261 28.2828C49.2203 29.776 49.2203 32.2068 47.7269 33.6992Z" fill="#333333"/>
<path d="M32.309 45.2883L29.4444 48.1522L22.4672 51.1429L12.3416 60.2554L13.68 61.7417L17.0808 58.681C17.487 58.8859 17.891 59.0971 18.3003 59.2802L19.1185 57.4556C18.9724 57.3894 18.8273 57.3095 18.6813 57.2405L23.5586 52.8504L30.5855 49.8396L33.7223 46.7018L32.309 45.2883Z" fill="#333333"/>
<path d="M25.7591 10.572L10.5959 25.7351L14.0819 29.2211L17.5088 25.9073L17.5208 25.8953C18.3431 25.0729 19.6813 25.0729 20.5037 25.8953C21.2119 26.6035 21.3229 27.7228 20.7677 28.556L17.827 32.9652L36.273 51.4111L51.4361 36.248L25.7591 10.572ZM34.6554 34.6315C32.6459 36.641 29.387 36.641 27.3764 34.6315C25.3669 32.622 25.3669 29.3631 27.3764 27.3525C29.386 25.343 32.6449 25.343 34.6554 27.3525C36.6649 29.362 36.6649 32.6209 34.6554 34.6315Z" fill="#E1B0C4"/>
<path d="M31.0165 37.1391C29.3741 37.1391 27.8297 36.499 26.6694 35.3376C25.508 34.1773 24.8679 32.6328 24.8679 30.9915C24.8679 29.3481 25.508 27.8047 26.6694 26.6444C27.8297 25.483 29.3731 24.8429 31.0165 24.8429C32.6589 24.8429 34.2025 25.483 35.3626 26.6444C36.524 27.8047 37.1641 29.3481 37.1641 30.9915C37.1641 32.6339 36.524 34.1773 35.3626 35.3376C34.2023 36.4998 32.6589 37.1391 31.0165 37.1391ZM31.0165 26.8444C29.9093 26.8444 28.8679 27.2764 28.0836 28.0597C27.2993 28.8429 26.8683 29.884 26.8683 30.9925C26.8683 32.0987 27.3004 33.1401 28.0836 33.9244C28.8669 34.7076 29.9082 35.1397 31.0165 35.1397C32.1227 35.1397 33.1641 34.7076 33.9484 33.9244C34.7327 33.1411 35.1636 32.0998 35.1636 30.9925C35.1636 29.8853 34.7316 28.844 33.9484 28.0597C33.1651 27.2753 32.1227 26.8444 31.0165 26.8444Z" fill="#333333"/>
<path d="M16.1795 35.4376L17.844 36.5469L22.4322 29.6651C23.5145 28.0407 23.2985 25.8601 21.9182 24.4797C20.3157 22.8772 17.708 22.8772 16.1055 24.4797L10.0879 30.4973L8.08729 40.5001L4.92839 43.6608C4.84326 43.4858 4.74739 43.3158 4.6664 43.1397L2.84986 43.978C3.03292 44.373 3.23891 44.7602 3.43995 45.1493L0.300049 48.2892L1.71452 49.7036L9.93069 41.4875L11.9313 31.4847L17.5208 25.895C18.3431 25.0727 19.6814 25.0727 20.5037 25.895C21.212 26.6033 21.3229 27.7225 20.7677 28.5558L16.1795 35.4376Z" fill="#333333"/>
<path d="M4.09327 20.1706L2.23768 19.4243C1.71557 20.7237 1.27734 22.071 0.937256 23.4264L2.87673 23.9126C3.19595 22.6442 3.60504 21.3849 4.09327 20.1706Z" fill="#333333"/>
<path d="M7.98517 13.3515L6.3988 12.1323C5.54652 13.2406 4.76325 14.4199 4.07007 15.6363L5.80644 16.6266C6.45583 15.4912 7.18889 14.3879 7.98517 13.3515Z" fill="#333333"/>
<path d="M0.4021 35.9509C0.623175 37.3302 0.942186 38.7096 1.35128 40.049L3.26389 39.4649C2.88187 38.2127 2.58372 36.9242 2.3767 35.6349L0.4021 35.9509Z" fill="#333333"/>
<path d="M2.00751 30.9915C2.00751 29.9202 2.06742 28.8409 2.18354 27.7826L0.195098 27.5636C0.070097 28.694 0.00708008 29.8463 0.00708008 30.9954C0.00811314 31.2535 0.0110057 31.5087 0.0169975 31.7636L2.01763 31.7165C2.01164 31.4746 2.00854 31.2314 2.00751 30.9915Z" fill="#333333"/>
<path d="M56.8095 13.7777C56.0322 12.6153 55.1679 11.4961 54.2437 10.4498L52.7454 11.7742C53.6117 12.7536 54.4198 13.8017 55.147 14.8891L56.8095 13.7777Z" fill="#333333"/>
<path d="M13.5588 7.82111L12.3534 6.22461C11.2391 7.06594 10.1697 7.99301 9.17651 8.97731L10.585 10.3978C11.5152 9.47546 12.5154 8.60933 13.5588 7.82111Z" fill="#333333"/>
<path d="M59.9944 29.663L61.993 29.5711C61.93 28.1717 61.7698 26.7653 61.5198 25.395L59.5522 25.752C59.7863 27.0363 59.9343 28.3508 59.9944 29.663Z" fill="#333333"/>
<path d="M60.4835 21.3177C60.0473 19.9894 59.5161 18.678 58.9041 17.4206L57.1047 18.2958C57.6779 19.4731 58.175 20.6985 58.5831 21.9409L60.4835 21.3177Z" fill="#333333"/>
<path d="M20.4017 3.98701L19.6694 2.12543C18.3701 2.63659 17.0928 3.24279 15.8723 3.92689L16.8517 5.67132C17.9909 5.03144 19.1864 4.46429 20.4017 3.98701Z" fill="#333333"/>
<path d="M31.9568 1.99857C33.2671 2.04051 34.5834 2.17254 35.8709 2.38969L36.2029 0.416119C34.8277 0.185125 33.4202 0.0440086 32.0208 0L31.9568 1.99857Z" fill="#333333"/>
<path d="M45.7065 56.0113L46.7229 57.7349C47.9252 57.0266 49.0925 56.2285 50.1919 55.3621L48.9537 53.7917C47.9241 54.6008 46.8328 55.3481 45.7065 56.0113Z" fill="#333333"/>
<path d="M46.7979 6.64881C47.8952 7.361 48.9534 8.15625 49.9448 9.01143L51.2522 7.49509C50.1908 6.58186 49.0607 5.73165 47.8884 4.97049L46.7979 6.64881Z" fill="#333333"/>
<path d="M39.6958 3.30393C40.9452 3.69505 42.1774 4.17625 43.3617 4.73328L44.214 2.92376C42.9487 2.32665 41.6293 1.81342 40.2939 1.39545L39.6958 3.30393Z" fill="#333333"/>
<path d="M56.5195 44.8232L58.278 45.7784C58.9462 44.5491 59.5363 43.2617 60.0305 41.9544L58.159 41.2472C57.6968 42.4705 57.1458 43.6739 56.5195 44.8232Z" fill="#333333"/>
<path d="M59.2942 37.4802L61.2438 37.9253C61.5558 36.5639 61.776 35.1665 61.9 33.7721L59.9074 33.594C59.7923 34.8994 59.5853 36.2068 59.2942 37.4802Z" fill="#333333"/>
<path d="M51.8713 51.1528L53.3098 52.5441C54.2811 51.5408 55.1933 50.4606 56.0226 49.3302L54.4112 48.1459C53.6327 49.2034 52.7794 50.2145 51.8713 51.1528Z" fill="#333333"/>
<path d="M38.4685 59.0331L38.9826 60.9676C40.334 60.6095 41.6722 60.1544 42.9625 59.6143L42.1913 57.7678C40.9853 58.2719 39.733 58.6979 38.4685 59.0331Z" fill="#333333"/>
<path d="M22.3552 60.7735C23.7007 61.1626 25.0829 61.4628 26.4643 61.6678L26.7555 59.6882C25.4631 59.4981 24.1697 59.2161 22.9114 58.851L22.3552 60.7735Z" fill="#333333"/>
<path d="M23.6775 0.857221L24.1486 2.80083C25.417 2.4938 26.7203 2.26963 28.0257 2.13574L27.8207 0.145233C26.4252 0.289036 25.0318 0.52912 23.6775 0.857221Z" fill="#333333"/>
<path d="M31.0155 59.9994L30.6754 59.9973L30.6575 61.998L31.0155 62C32.2988 62 33.5901 61.9211 34.8536 61.7649L34.6075 59.7804C33.4261 59.9254 32.2178 59.9994 31.0155 59.9994Z" fill="#333333"/>
</svg>
