<svg width="62" height="64" viewBox="0 0 62 64" fill="none" xmlns="http://www.w3.org/2000/svg">
<path d="M51.1297 19.0744C48.8909 18.7239 46.9669 17.4059 45.7918 15.5464L35.8438 21.1445V23.1132L45.7918 28.7112C46.9631 26.8577 48.8783 25.5426 51.1083 25.1872C51.2633 24.1537 51.3438 23.1053 51.3438 22.0678C51.3438 21.0657 51.2701 20.0587 51.1297 19.0744Z" fill="#E1B0C4"/>
<path d="M44.5634 32.9568L35.8446 28.035L29.0634 26.0663L10.8848 24.7591L10.8857 25.0859L10.8974 25.2336C11.2568 27.5753 12.0027 29.8177 13.1139 31.8996L28.7185 61.1074C29.1738 61.9589 30.0486 62.4875 31.0009 62.4875C31.9531 62.4875 32.8279 61.9589 33.2832 61.1084L45.9361 37.414C45.0758 36.1451 44.5634 34.6145 44.5634 32.9568Z" fill="#E1B0C4"/>
<path d="M29.0632 18.1914L35.8445 16.2227L44.5632 11.301C44.5632 9.95534 44.8965 8.68946 45.4825 7.58206C41.6424 3.63381 36.5274 1.4574 31.0608 1.4574H30.9397C20.9577 1.4574 12.3319 9.01331 10.8759 19.0321L10.8652 19.1059L10.8662 19.5006L29.0632 18.1914Z" fill="#E1B0C4"/>
<path d="M35.8438 40.8317H33.9062V42.8004H35.8438V40.8317Z" fill="#333333"/>
<path d="M31.9688 40.8317H30.0312V42.8004H31.9688V40.8317Z" fill="#333333"/>
<path d="M28.0938 40.8317H26.1562V42.8004H28.0938V40.8317Z" fill="#333333"/>
<path d="M52.3125 16.2227C54.9833 16.2227 57.1562 14.0148 57.1562 11.3009C57.1562 8.58706 54.9833 6.37915 52.3125 6.37915C49.6417 6.37915 47.4688 8.58706 47.4688 11.3009C47.4688 14.0148 49.6417 16.2227 52.3125 16.2227ZM52.3125 8.34786C53.9148 8.34786 55.2188 9.67281 55.2188 11.3009C55.2188 12.9291 53.9148 14.254 52.3125 14.254C50.7102 14.254 49.4062 12.9291 49.4062 11.3009C49.4062 9.67281 50.7102 8.34786 52.3125 8.34786Z" fill="#333333"/>
<path d="M52.3125 28.035C49.6417 28.035 47.4688 30.2429 47.4688 32.9568C47.4688 35.6707 49.6417 37.8786 52.3125 37.8786C54.9833 37.8786 57.1562 35.6707 57.1562 32.9568C57.1562 30.2429 54.9833 28.035 52.3125 28.035ZM52.3125 35.9099C50.7102 35.9099 49.4062 34.5849 49.4062 32.9568C49.4062 31.3287 50.7102 30.0037 52.3125 30.0037C53.9148 30.0037 55.2188 31.3287 55.2188 32.9568C55.2188 34.5849 53.9148 35.9099 52.3125 35.9099Z" fill="#333333"/>
<path d="M33.9062 21.1445H31.9688V23.1132H33.9062V21.1445Z" fill="#333333"/>
<path d="M52.3125 24.098C49.6387 24.098 47.1568 25.3275 45.509 27.4271L44.7117 26.9783C45.2455 25.423 45.5312 23.7978 45.5312 22.1293C45.5312 20.4608 45.2455 18.8357 44.7117 17.2804L45.5099 16.8315C47.4813 19.3347 50.653 20.5799 53.8354 20.0287C57.6077 19.3761 60.544 16.2094 60.9751 12.3291C61.255 9.8042 60.4694 7.27933 58.8157 5.40019C57.163 3.52007 54.7925 2.4422 52.3125 2.4422C47.7003 2.4422 43.9125 6.10007 43.6131 10.7108L41.4702 11.9206C38.7345 9.0236 34.9796 7.36398 31 7.36398C24.4435 7.36398 18.8102 11.7335 17.0374 18.0698L3.79072 19.0227C2.20778 19.1516 0.96875 20.516 0.96875 22.1293C0.96875 23.7427 2.20778 25.107 3.80041 25.2369L17.0384 26.1888C18.8102 32.5251 24.4435 36.8947 31 36.8947C34.9796 36.8947 38.7345 35.235 41.4702 32.3371L43.6131 33.5469C43.771 35.9792 44.9025 38.2304 46.7703 39.7956C48.3435 41.1136 50.3033 41.8135 52.329 41.8135C52.9005 41.8135 53.4779 41.7574 54.0514 41.6442C57.4624 40.9709 60.2001 38.1901 60.8617 34.7251C61.3684 32.0723 60.7057 29.3752 59.0424 27.3247C57.3781 25.2743 54.9252 24.098 52.3125 24.098ZM43.5938 22.1293C43.5938 23.4621 43.3855 24.7615 42.9931 26.0116L36.7738 22.5122C36.7863 22.3843 36.8125 22.2602 36.8125 22.1293C36.8125 21.9984 36.7863 21.8744 36.7747 21.7464L42.9941 18.247C43.3855 19.4972 43.5938 20.7975 43.5938 22.1293ZM45.5312 11.8802V11.3014C45.5312 7.50179 48.5741 4.41091 52.3125 4.41091C54.2413 4.41091 56.0858 5.24958 57.3713 6.71234C58.6753 8.19478 59.271 10.1113 59.0482 12.1086C58.7188 15.0754 56.389 17.5895 53.5089 18.0885C50.7935 18.5561 48.0829 17.3522 46.6075 15.0154L46.1164 14.2387L36.1034 19.8732C35.402 18.8593 34.2472 18.1919 32.9375 18.1919C32.7312 18.1919 32.5316 18.2224 32.334 18.2539L36.1102 17.1691L45.5312 11.8802ZM34.875 22.1293C34.875 23.2151 34.006 24.098 32.9375 24.098C31.869 24.098 31 23.2151 31 22.1293C31 21.0436 31.869 20.1606 32.9375 20.1606C34.006 20.1606 34.875 21.0436 34.875 22.1293ZM31 9.33269C34.2792 9.33269 37.3899 10.6212 39.7265 12.9049L35.4718 15.3067L28.8939 17.2164L19.1105 17.9202C20.8475 12.8045 25.5585 9.33269 31 9.33269ZM3.93603 20.9855L29.1303 19.1743L31.3865 18.5266C30.3102 19.0069 29.5004 19.9716 29.2001 21.1459H3.47588C3.61538 21.0613 3.76747 20.9993 3.93603 20.9855ZM3.47878 23.1137H29.2001C29.4975 24.2772 30.2977 25.234 31.3604 25.7183L29.3289 25.1208L3.94572 23.2741C3.77425 23.2603 3.62022 23.1973 3.47878 23.1137ZM31 34.9259C25.5585 34.9259 20.8475 31.4541 19.1096 26.3384L28.893 27.0422L35.4708 28.9519L39.7265 31.3537C37.3899 33.6364 34.2792 34.9259 31 34.9259ZM58.9601 34.3501C58.4466 37.0354 56.3251 39.1902 53.6823 39.7129C51.6441 40.1155 49.5719 39.5928 48.0025 38.2777C46.4322 36.9616 45.5312 35.0224 45.5312 32.9572V32.3784L36.3136 27.1751L32.3349 26.0047C32.5335 26.0362 32.7312 26.0667 32.9375 26.0667C34.2472 26.0667 35.402 25.3993 36.1043 24.3855L46.1173 30.0199L46.6085 29.2433C47.864 27.2549 49.9962 26.0667 52.3125 26.0667C54.3459 26.0667 56.2534 26.9822 57.5476 28.5768C58.8419 30.1715 59.3563 32.2761 58.9601 34.3501Z" fill="#333333"/>
</svg>
