<svg width="62" height="62" viewBox="0 0 62 62" fill="none" xmlns="http://www.w3.org/2000/svg">
<path d="M31 5C26.7404 5 22.7529 6.16046 19.3318 8.17933C18.4803 8.68181 18 9.61884 18 10.6075V27C18 34.18 23.82 40 31 40C38.18 40 44 34.18 44 27V10.6075C44 9.61884 43.5197 8.68181 42.6682 8.17933C39.2471 6.16046 35.2596 5 31 5Z" fill="#E1B0C4"/>
<path d="M45 8.501L44.566 8.203C40.561 5.454 35.869 4 31 4C26.131 4 21.439 5.454 17.434 8.204L17 8.501V13.751C13.19 17.498 11 22.642 11 27.999V61.999H13V28C13 23.88 14.446 19.905 17 16.727V27C17 34.72 23.28 41 31 41C38.72 41 45 34.72 45 27V16.727C47.554 19.905 49 23.881 49 28V62H51V28C51 22.642 48.809 17.499 45 13.752V8.501ZM43 27C43 29.709 42.087 32.203 40.567 34.213C39.935 33.739 39.282 33.296 38.592 32.922L37.64 34.68C38.194 34.981 38.721 35.333 39.234 35.707C37.082 37.742 34.188 39 31 39C27.809 39 24.912 37.74 22.76 35.701C25.15 33.956 28.035 33 31 33C32.657 33 34.279 33.288 35.822 33.857L36.513 31.98C34.749 31.33 32.894 31 31 31C27.545 31 24.188 32.139 21.428 34.207C19.911 32.197 19 29.706 19 27V9.562C22.573 7.229 26.711 6 31 6C35.289 6 39.427 7.229 43 9.562V27Z" fill="#333333"/>
<path d="M57 0H55V3H57V0Z" fill="#333333"/>
<path d="M53.1731 4.58819L54.5875 3.17419L52.4665 1.05259L51.0521 2.46659L53.1731 4.58819Z" fill="#333333"/>
<path d="M53 5H50V7H53V5Z" fill="#333333"/>
<path d="M52.4656 10.951L54.5869 8.82971L53.1727 7.41551L51.0514 9.53681L52.4656 10.951Z" fill="#333333"/>
<path d="M57 9H55V12H57V9Z" fill="#333333"/>
<path d="M59.5347 10.9519L60.9491 9.5379L58.8281 7.4163L57.4137 8.8303L59.5347 10.9519Z" fill="#333333"/>
<path d="M62 5H59V7H62V5Z" fill="#333333"/>
<path d="M58.8283 4.58535L60.9496 2.46405L59.5354 1.04985L57.4141 3.17115L58.8283 4.58535Z" fill="#333333"/>
<path d="M7 10H5V13H7V10Z" fill="#333333"/>
<path d="M3.17081 14.5866L4.58521 13.1726L2.46421 11.051L1.04981 12.465L3.17081 14.5866Z" fill="#333333"/>
<path d="M3 15H0V17H3V15Z" fill="#333333"/>
<path d="M2.46354 20.9484L4.58484 18.8271L3.17064 17.4129L1.04934 19.5342L2.46354 20.9484Z" fill="#333333"/>
<path d="M7 19H5V22H7V19Z" fill="#333333"/>
<path d="M9.53494 20.952L10.9493 19.538L8.82834 17.4164L7.41394 18.8304L9.53494 20.952Z" fill="#333333"/>
<path d="M12 15H9V17H12V15Z" fill="#333333"/>
<path d="M8.82804 14.5858L10.9493 12.4645L9.53514 11.0503L7.41384 13.1716L8.82804 14.5858Z" fill="#333333"/>
<path d="M60 26H58V28H60V26Z" fill="#333333"/>
<path d="M60 30H58V32H60V30Z" fill="#333333"/>
<path d="M62 28H60V30H62V28Z" fill="#333333"/>
<path d="M58 28H56V30H58V28Z" fill="#333333"/>
<path d="M17 0H15V2H17V0Z" fill="#333333"/>
<path d="M17 4H15V6H17V4Z" fill="#333333"/>
<path d="M19 2H17V4H19V2Z" fill="#333333"/>
<path d="M15 2H13V4H15V2Z" fill="#333333"/>
<path d="M21 42H19V44H21V42Z" fill="#333333"/>
<path d="M21 46H19V48H21V46Z" fill="#333333"/>
<path d="M23 44H21V46H23V44Z" fill="#333333"/>
<path d="M19 44H17V46H19V44Z" fill="#333333"/>
</svg>
