<svg width="62" height="62" viewBox="0 0 62 62" fill="none" xmlns="http://www.w3.org/2000/svg">
<g clip-path="url(#clip0)">
<path d="M30.9996 18.6C24.1618 18.6 18.5996 24.1622 18.5996 31V37.2H19.6329C19.6329 35.4875 21.0205 34.1 22.7329 34.1H23.7663C23.7663 32.9582 24.6911 32.0333 25.8329 32.0333H29.5364C30.4986 32.0333 31.4482 31.8093 32.3089 31.3794L34.6037 30.232C34.9523 30.0575 35.3353 29.9666 35.7253 29.9666C37.1098 29.9666 38.2329 31.0898 38.2329 32.4743V34.1H39.2663C40.9787 34.1 42.3663 35.4875 42.3663 37.2H43.3996V31C43.3996 24.1622 37.8374 18.6 30.9996 18.6Z" fill="#E1B0C4"/>
<path d="M44.3717 49.1227L36.1671 46.7563V44.676C37.2594 43.7991 38.1232 42.6507 38.6586 41.3333H39.2671C41.5466 41.3333 43.4004 39.4796 43.4004 37.2C43.4004 34.9204 41.5466 33.0667 39.2671 33.0667V32.4743C39.2671 30.5217 37.6777 28.9333 35.7261 28.9333C35.1801 28.9333 34.6327 29.0625 34.1418 29.3072L31.8475 30.4546C31.1336 30.8108 30.3349 31 29.5362 31H25.8337C24.4886 31 23.3518 31.8668 22.9239 33.0667H22.7337C20.4541 33.0667 18.6004 34.9204 18.6004 37.2C18.6004 39.4796 20.4541 41.3333 22.7337 41.3333H23.3422C23.8776 42.6507 24.7414 43.7991 25.8337 44.676V46.7563L17.6291 49.1227C14.5508 50.0112 12.4004 52.8685 12.4004 56.073V62H49.6004V56.073C49.6004 52.8685 47.45 50.0112 44.3717 49.1227ZM36.9935 49.1454L35.5999 54.0225L32.5474 51.5809L35.4334 48.6948L36.9935 49.1454ZM30.6058 57.8667H31.395L32.4283 59.9333H29.5725L30.6058 57.8667ZM31.6059 55.8H30.3949L29.1033 54.5083L31.0004 52.9901L32.8975 54.5083L31.6059 55.8ZM41.3337 37.2C41.3337 38.3398 40.4069 39.2667 39.2671 39.2667H39.1959C39.2383 38.9276 39.2671 38.5835 39.2671 38.2333V35.1333C40.4069 35.1333 41.3337 36.0602 41.3337 37.2ZM22.7337 39.2667C21.5939 39.2667 20.6671 38.3398 20.6671 37.2C20.6671 36.0602 21.5939 35.1333 22.7337 35.1333V38.2333C22.7337 38.5835 22.7625 38.9276 22.8049 39.2667H22.7337ZM24.8004 38.2333V34.1C24.8004 33.5299 25.2646 33.0667 25.8337 33.0667H29.5362C30.6543 33.0667 31.7724 32.8023 32.7714 32.3033L35.0656 31.1569C35.27 31.0535 35.4975 31.001 35.7261 31.001C36.5389 31 37.2004 31.6615 37.2004 32.4743V38.2333C37.2004 41.6527 34.4198 44.4333 31.0004 44.4333C27.581 44.4333 24.8004 41.6527 24.8004 38.2333ZM31.0004 46.5C32.0968 46.5 33.1427 46.281 34.1004 45.8915V47.1055L31.0004 50.2055L27.9004 47.1055V45.8915C28.858 46.281 29.904 46.5 31.0004 46.5ZM26.5673 48.6948L29.4534 51.5809L26.4008 54.0225L25.0073 49.1454L26.5673 48.6948ZM14.4671 56.073C14.4671 53.7848 16.0024 51.7444 18.2013 51.1086L23.0208 49.7176L25.2666 57.5776L27.4786 55.8071L28.7097 57.0367L27.2616 59.9333H20.6671V56.8333H18.6004V59.9333H14.4671V56.073ZM47.5337 59.9333H43.4004V56.8333H41.3337V59.9333H34.7392L33.2911 57.0367L34.5222 55.8071L36.7342 57.5776L38.98 49.7176L43.7995 51.1086C45.9984 51.7434 47.5337 53.7848 47.5337 56.073V59.9333Z" fill="#333333"/>
<path d="M31.0005 0L32.2892 2.36032L35.1339 3.1L33.0848 4.81095L34.1005 8.26667L31.0005 6.32513L27.9005 8.26667L28.9162 4.81095L26.8672 3.1L29.7119 2.36032L31.0005 0Z" fill="#E1B0C4"/>
<path d="M43.399 6.20001L44.6876 8.56033L47.5323 9.30001L45.4833 11.011L46.499 14.4667L43.399 12.5251L40.299 14.4667L41.3146 11.011L39.2656 9.30001L42.1103 8.56033L43.399 6.20001Z" fill="#E1B0C4"/>
<path d="M55.7993 0L57.088 2.36032L59.9327 3.1L57.8837 4.81095L58.8993 8.26667L55.7993 6.32513L52.6993 8.26667L53.715 4.81095L51.666 3.1L54.5107 2.36032L55.7993 0Z" fill="#E1B0C4"/>
<path d="M18.6001 6.20001L17.3115 8.56033L14.4668 9.30001L16.5158 11.011L15.5001 14.4667L18.6001 12.5251L21.7001 14.4667L20.6845 11.011L22.7335 9.30001L19.8888 8.56033L18.6001 6.20001Z" fill="#E1B0C4"/>
<path d="M6.19974 0L4.9111 2.36032L2.06641 3.1L4.11541 4.81095L3.09974 8.26667L6.19974 6.32513L9.29974 8.26667L8.28407 4.81095L10.3331 3.1L7.48838 2.36032L6.19974 0Z" fill="#E1B0C4"/>
<path d="M55.9998 19.6651C56.5124 19.1126 56.8328 18.379 56.8328 17.5667C56.8328 15.8577 55.4417 14.4667 53.7328 14.4667C52.0239 14.4667 50.6328 15.8577 50.6328 17.5667C50.6328 19.2756 52.0239 20.6667 53.7328 20.6667C53.8827 20.6667 54.0255 20.643 54.1687 20.6223C55.9069 24.1491 56.8328 28.0746 56.8328 32.0333C56.8328 36.2328 55.8025 40.4034 53.8529 44.0902L55.6804 45.0575C57.7854 41.072 58.8995 36.5698 58.8995 32.0333C58.8995 27.7421 57.8909 23.4856 55.9998 19.6651ZM52.6995 17.5667C52.6995 16.9975 53.1637 16.5333 53.7328 16.5333C54.302 16.5333 54.7661 16.9975 54.7661 17.5667C54.7661 18.1358 54.302 18.6 53.7328 18.6C53.1637 18.6 52.6995 18.1358 52.6995 17.5667Z" fill="#333333"/>
<path d="M8.26628 43.4C8.11642 43.4 7.97363 43.4237 7.83034 43.4444C6.09214 39.9175 5.16628 35.9921 5.16628 32.0333C5.16628 27.8329 6.19658 23.6632 8.14619 19.9764L6.31969 19.0102C4.21367 22.9937 3.09961 27.4968 3.09961 32.0333C3.09961 36.3246 4.10822 40.58 5.99829 44.4025C5.48667 44.955 5.16628 45.6887 5.16628 46.5C5.16628 48.2089 6.55734 49.6 8.26628 49.6C9.97521 49.6 11.3663 48.2089 11.3663 46.5C11.3663 44.7911 9.97521 43.4 8.26628 43.4ZM8.26628 47.5333C7.69714 47.5333 7.23294 47.0701 7.23294 46.5C7.23294 45.9298 7.69714 45.4667 8.26628 45.4667C8.83542 45.4667 9.29961 45.9298 9.29961 46.5C9.29961 47.0701 8.83542 47.5333 8.26628 47.5333Z" fill="#333333"/>
</g>
<defs>
<clipPath id="clip0">
<rect width="62" height="62" fill="white"/>
</clipPath>
</defs>
</svg>
