<svg width="62" height="62" viewBox="0 0 62 62" fill="none" xmlns="http://www.w3.org/2000/svg">
<path d="M51.1297 18.3065C48.8909 17.9616 46.9669 16.6644 45.7918 14.8345L35.8438 20.3438V22.2813L45.7918 27.7905C46.9631 25.9664 48.8783 24.6721 51.1083 24.3224C51.2633 23.3052 51.3438 22.2735 51.3438 21.2524C51.3438 20.2663 51.2701 19.2752 51.1297 18.3065Z" fill="#E1B0C4"/>
<path d="M44.5625 31.9688L35.8437 27.125L29.0625 25.1875L10.8839 23.901L10.8849 24.2226L10.8965 24.3679C11.2559 26.6726 12.0018 28.8794 13.113 30.9283L28.7176 59.6731C29.1729 60.511 30.0477 61.0312 31 61.0312C31.9523 61.0312 32.8271 60.511 33.2824 59.674L45.9352 36.3553C45.075 35.1065 44.5625 33.6001 44.5625 31.9688Z" fill="#E1B0C4"/>
<path d="M29.0625 17.4375L35.8437 15.5L44.5625 10.6562C44.5625 9.33197 44.8957 8.08616 45.4818 6.99631C41.6417 3.11066 36.5267 0.96875 31.06 0.96875H30.9389C20.9569 0.96875 12.3312 8.40487 10.8752 18.2648L10.8645 18.3375L10.8655 18.7259L29.0625 17.4375Z" fill="#E1B0C4"/>
<path d="M35.8438 39.7188H33.9062V41.6562H35.8438V39.7188Z" fill="#333333"/>
<path d="M31.9688 39.7188H30.0312V41.6562H31.9688V39.7188Z" fill="#333333"/>
<path d="M28.0938 39.7188H26.1562V41.6562H28.0938V39.7188Z" fill="#333333"/>
<path d="M52.3125 15.5C54.9833 15.5 57.1562 13.3271 57.1562 10.6562C57.1562 7.98541 54.9833 5.8125 52.3125 5.8125C49.6417 5.8125 47.4688 7.98541 47.4688 10.6562C47.4688 13.3271 49.6417 15.5 52.3125 15.5ZM52.3125 7.75C53.9148 7.75 55.2188 9.05394 55.2188 10.6562C55.2188 12.2586 53.9148 13.5625 52.3125 13.5625C50.7102 13.5625 49.4062 12.2586 49.4062 10.6562C49.4062 9.05394 50.7102 7.75 52.3125 7.75Z" fill="#333333"/>
<path d="M52.3125 27.125C49.6417 27.125 47.4688 29.2979 47.4688 31.9688C47.4688 34.6396 49.6417 36.8125 52.3125 36.8125C54.9833 36.8125 57.1562 34.6396 57.1562 31.9688C57.1562 29.2979 54.9833 27.125 52.3125 27.125ZM52.3125 34.875C50.7102 34.875 49.4062 33.5711 49.4062 31.9688C49.4062 30.3664 50.7102 29.0625 52.3125 29.0625C53.9148 29.0625 55.2188 30.3664 55.2188 31.9688C55.2188 33.5711 53.9148 34.875 52.3125 34.875Z" fill="#333333"/>
<path d="M33.9062 20.3438H31.9688V22.2812H33.9062V20.3438Z" fill="#333333"/>
<path d="M52.3125 23.25C49.6387 23.25 47.1568 24.46 45.509 26.5263L44.7117 26.0846C45.2455 24.5539 45.5312 22.9545 45.5312 21.3125C45.5312 19.6705 45.2455 18.0711 44.7117 16.5404L45.5099 16.0987C47.4813 18.5622 50.653 19.7877 53.8354 19.2452C57.6077 18.6029 60.544 15.4864 60.9751 11.6676C61.255 9.18278 60.4694 6.69794 58.8157 4.84859C57.163 2.99828 54.7925 1.9375 52.3125 1.9375C47.7003 1.9375 43.9125 5.53737 43.6131 10.075L41.4702 11.2656C38.7345 8.41456 34.9796 6.78125 31 6.78125C24.4435 6.78125 18.8102 11.0815 17.0374 17.3174L3.79072 18.2551C2.20778 18.382 0.96875 19.7247 0.96875 21.3125C0.96875 22.9003 2.20778 24.243 3.80041 24.3708L17.0384 25.3076C18.8102 31.5435 24.4435 35.8438 31 35.8438C34.9796 35.8438 38.7345 34.2104 41.4702 31.3584L43.6131 32.549C43.771 34.9428 44.9025 37.1583 46.7703 38.6987C48.3435 39.9958 50.3033 40.6846 52.329 40.6846C52.9005 40.6846 53.4779 40.6294 54.0514 40.518C57.4624 39.8553 60.2001 37.1186 60.8617 33.7086C61.3684 31.0978 60.7057 28.4435 59.0424 26.4256C57.3781 24.4077 54.9252 23.25 52.3125 23.25ZM43.5938 21.3125C43.5938 22.6242 43.3855 23.9029 42.9931 25.1333L36.7738 21.6893C36.7863 21.5634 36.8125 21.4413 36.8125 21.3125C36.8125 21.1837 36.7863 21.0616 36.7747 20.9357L42.9941 17.4918C43.3855 18.7221 43.5938 20.0018 43.5938 21.3125ZM45.5312 11.2259V10.6563C45.5312 6.91688 48.5741 3.875 52.3125 3.875C54.2413 3.875 56.0858 4.70038 57.3713 6.13994C58.6753 7.59888 59.271 9.48503 59.0482 11.4506C58.7188 14.3704 56.389 16.8446 53.5089 17.3358C50.7935 17.7959 48.0829 16.6112 46.6075 14.3113L46.1164 13.547L36.1034 19.0921C35.402 18.0943 34.2472 17.4375 32.9375 17.4375C32.7312 17.4375 32.5316 17.4675 32.334 17.4985L36.1102 16.431L45.5312 11.2259ZM34.875 21.3125C34.875 22.381 34.006 23.25 32.9375 23.25C31.869 23.25 31 22.381 31 21.3125C31 20.244 31.869 19.375 32.9375 19.375C34.006 19.375 34.875 20.244 34.875 21.3125ZM31 8.71875C34.2792 8.71875 37.3899 9.98684 39.7265 12.2343L35.4718 14.5981L28.8939 16.4775L19.1105 17.1701C20.8475 12.1355 25.5585 8.71875 31 8.71875ZM3.93603 20.1868L29.1303 18.4043L31.3865 17.7669C30.3102 18.2396 29.5004 19.189 29.2001 20.3447H3.47588C3.61538 20.2614 3.76747 20.2004 3.93603 20.1868ZM3.47878 22.2813H29.2001C29.4975 23.4263 30.2977 24.3679 31.3604 24.8446L29.3289 24.2565L3.94572 22.4392C3.77425 22.4256 3.62022 22.3636 3.47878 22.2813ZM31 33.9063C25.5585 33.9063 20.8475 30.4895 19.1096 25.4549L28.893 26.1475L35.4708 28.0269L39.7265 30.3907C37.3899 32.6372 34.2792 33.9063 31 33.9063ZM58.9601 33.3395C58.4466 35.9823 56.3251 38.1029 53.6823 38.6173C51.6441 39.0135 49.5719 38.4991 48.0025 37.2048C46.4322 35.9096 45.5312 34.0012 45.5312 31.9688V31.3991L36.3136 26.2783L32.3349 25.1265C32.5335 25.1575 32.7312 25.1875 32.9375 25.1875C34.2472 25.1875 35.402 24.5307 36.1043 23.5329L46.1173 29.078L46.6085 28.3137C47.864 26.3568 49.9962 25.1875 52.3125 25.1875C54.3459 25.1875 56.2534 26.0884 57.5476 27.6578C58.8419 29.2272 59.3563 31.2984 58.9601 33.3395Z" fill="#333333"/>
</svg>
