<svg width="62" height="62" viewBox="0 0 62 62" fill="none" xmlns="http://www.w3.org/2000/svg">
<path d="M58.1339 48.3794L56.52 47.309C58.2037 44.7689 59.094 41.8094 59.094 38.75C59.094 32.4716 55.3497 26.8538 49.5537 24.4377L50.2996 22.6494C56.8184 25.3677 61.0315 31.6869 61.0315 38.75C61.0315 42.192 60.0298 45.5216 58.1339 48.3794Z" fill="#333333"/>
<path d="M31 56.1875H18.4062C8.79141 56.1875 0.96875 48.3648 0.96875 38.75C0.96875 29.1352 8.79141 21.3125 18.4062 21.3125V23.25C9.85994 23.25 2.90625 30.2037 2.90625 38.75C2.90625 47.2963 9.85994 54.25 18.4062 54.25H31V56.1875Z" fill="#333333"/>
<path d="M52.0509 46.7189L50.6414 45.3888C52.3435 43.5841 53.2812 41.2261 53.2812 38.75C53.2812 33.4083 48.9354 29.0625 43.5937 29.0625H37.1147V27.125H43.5937C50.004 27.125 55.2187 32.3398 55.2187 38.75C55.2187 41.7221 54.094 44.5518 52.0509 46.7189Z" fill="#333333"/>
<path d="M36.8193 50.375H18.4063C11.996 50.375 6.78125 45.1602 6.78125 38.75C6.78125 32.3398 11.996 27.125 18.4063 27.125H25.1875V29.0625H18.4063C13.0646 29.0625 8.71875 33.4083 8.71875 38.75C8.71875 44.0917 13.0646 48.4375 18.4063 48.4375H36.8193V50.375Z" fill="#333333"/>
<path d="M47.5782 45.3947L46.5794 43.7352C48.3232 42.686 49.4062 40.7766 49.4062 38.75C49.4062 35.5444 46.7993 32.9375 43.5938 32.9375H31V31H43.5938C47.8669 31 51.3438 34.4768 51.3438 38.75C51.3438 41.4518 49.9013 43.9977 47.5782 45.3947Z" fill="#333333"/>
<path d="M43.5938 46.5H18.4062C14.1331 46.5 10.6562 43.0232 10.6562 38.75C10.6562 34.4768 14.1331 31 18.4062 31H25.1875V32.9375H18.4062C15.2007 32.9375 12.5938 35.5444 12.5938 38.75C12.5938 41.9556 15.2007 44.5625 18.4062 44.5625H43.5938C43.8747 44.5625 44.1566 44.5422 44.4298 44.5024L44.7078 46.4196C44.3426 46.4738 43.9687 46.5 43.5938 46.5Z" fill="#333333"/>
<path d="M53.2812 45.5312C52.8124 45.5312 52.3513 45.5777 51.8988 45.6591C50.7916 44.3474 49.1999 43.5938 47.4688 43.5938C45.261 43.5938 43.3022 44.825 42.3218 46.7461C41.787 46.5823 41.2397 46.5 40.6875 46.5C37.8103 46.5 35.4214 48.6032 34.9612 51.3525C34.9322 51.3515 34.9041 51.3438 34.875 51.3438C32.2042 51.3438 30.0312 53.5167 30.0312 56.1875C30.0312 58.8583 32.2042 61.0312 34.875 61.0312H53.2812C57.5544 61.0312 61.0312 57.5544 61.0312 53.2812C61.0312 49.0081 57.5544 45.5312 53.2812 45.5312Z" fill="#E1B0C4"/>
<path d="M28.0941 38.75C25.957 38.75 24.2191 37.0121 24.2191 34.875V26.0855C21.5521 26.4788 18.8822 25.1933 17.4892 22.9458C14.9995 23.7266 12.1804 22.9303 10.4435 20.988C9.1589 19.5513 8.54665 17.6187 8.76365 15.6889C9.10174 12.6809 11.5197 10.1874 14.5132 9.75919C15.2456 9.6565 15.9741 9.66716 16.689 9.79697C17.5076 6.35209 20.5688 3.875 24.2191 3.875C26.8192 3.875 29.1936 5.15472 30.6254 7.27337C31.3549 6.94981 32.1396 6.78125 32.9378 6.78125C35.2754 6.78125 37.334 8.17431 38.2456 10.2387C39.009 9.87544 39.8353 9.6875 40.6878 9.6875C43.2424 9.6875 45.4367 11.3508 46.1952 13.7068C46.6582 13.6003 47.1194 13.5509 47.6057 13.5635H47.6066C49.1353 13.6003 50.5759 14.2522 51.6638 15.3993C52.7497 16.5453 53.3242 18.0168 53.2806 19.5455C53.1876 22.7085 50.6359 25.1875 47.4691 25.1875C46.4025 25.1875 45.3659 24.8891 44.4611 24.335C43.4275 25.6263 41.7835 26.3626 40.0581 26.1097C38.9606 28.488 36.59 30.0312 33.9066 30.0312C33.2488 30.0312 32.5959 29.9334 31.9691 29.7455V34.875C31.9691 37.0121 30.2312 38.75 28.0941 38.75Z" fill="#E1B0C4"/>
<path d="M55.2188 50.375H53.2812V52.3125H55.2188V50.375Z" fill="#333333"/>
<path d="M52.3125 55.2188H50.375V57.1562H52.3125V55.2188Z" fill="#333333"/>
<path d="M43.5938 51.3438H41.6562V53.2812H43.5938V51.3438Z" fill="#333333"/>
<path d="M35.8438 55.2188H33.9062V57.1562H35.8438V55.2188Z" fill="#333333"/>
<path d="M32.9375 24.2188C31.3352 24.2188 30.0312 22.9148 30.0312 21.3125C30.0312 19.7102 31.3352 18.4062 32.9375 18.4062C34.5398 18.4062 35.8438 19.7102 35.8438 21.3125C35.8438 22.9148 34.5398 24.2188 32.9375 24.2188ZM32.9375 20.3438C32.4028 20.3438 31.9688 20.7778 31.9688 21.3125C31.9688 21.8472 32.4028 22.2812 32.9375 22.2812C33.4722 22.2812 33.9062 21.8472 33.9062 21.3125C33.9062 20.7778 33.4722 20.3438 32.9375 20.3438Z" fill="#333333"/>
<path d="M15.5 14.5312H13.5625V16.4688H15.5V14.5312Z" fill="#333333"/>
<path d="M47.4688 18.4062H45.5312V20.3438H47.4688V18.4062Z" fill="#333333"/>
<path d="M41.6562 14.5312H39.7188V16.4688H41.6562V14.5312Z" fill="#333333"/>
<path d="M25.1875 10.6562H23.25V12.5938H25.1875V10.6562Z" fill="#333333"/>
<path d="M23.25 19.375H21.3125V21.3125H23.25V19.375Z" fill="#333333"/>
<path d="M57.1562 13.5625C55.0192 13.5625 53.2812 11.8246 53.2812 9.6875C53.2812 7.55044 55.0192 5.8125 57.1562 5.8125C59.2933 5.8125 61.0312 7.55044 61.0312 9.6875C61.0312 11.8246 59.2933 13.5625 57.1562 13.5625ZM57.1562 7.75C56.0877 7.75 55.2188 8.61897 55.2188 9.6875C55.2188 10.756 56.0877 11.625 57.1562 11.625C58.2248 11.625 59.0938 10.756 59.0938 9.6875C59.0938 8.61897 58.2248 7.75 57.1562 7.75Z" fill="#333333"/>
<path d="M48.4375 6.78125C46.8352 6.78125 45.5312 5.47731 45.5312 3.875C45.5312 2.27269 46.8352 0.96875 48.4375 0.96875C50.0398 0.96875 51.3438 2.27269 51.3438 3.875C51.3438 5.47731 50.0398 6.78125 48.4375 6.78125ZM48.4375 2.90625C47.9028 2.90625 47.4688 3.34025 47.4688 3.875C47.4688 4.40975 47.9028 4.84375 48.4375 4.84375C48.9722 4.84375 49.4062 4.40975 49.4062 3.875C49.4062 3.34025 48.9722 2.90625 48.4375 2.90625Z" fill="#333333"/>
<path d="M3.875 16.4688C2.27269 16.4688 0.96875 15.1648 0.96875 13.5625C0.96875 11.9602 2.27269 10.6562 3.875 10.6562C5.47731 10.6562 6.78125 11.9602 6.78125 13.5625C6.78125 15.1648 5.47731 16.4688 3.875 16.4688ZM3.875 12.5938C3.34025 12.5938 2.90625 13.0278 2.90625 13.5625C2.90625 14.0972 3.34025 14.5312 3.875 14.5312C4.40975 14.5312 4.84375 14.0972 4.84375 13.5625C4.84375 13.0278 4.40975 12.5938 3.875 12.5938Z" fill="#333333"/>
<path d="M12.5938 8.71875C10.4567 8.71875 8.71875 6.98081 8.71875 4.84375C8.71875 2.70669 10.4567 0.96875 12.5938 0.96875C14.7308 0.96875 16.4688 2.70669 16.4688 4.84375C16.4688 6.98081 14.7308 8.71875 12.5938 8.71875ZM12.5938 2.90625C11.5252 2.90625 10.6562 3.77522 10.6562 4.84375C10.6562 5.91228 11.5252 6.78125 12.5938 6.78125C13.6623 6.78125 14.5312 5.91228 14.5312 4.84375C14.5312 3.77522 13.6623 2.90625 12.5938 2.90625Z" fill="#333333"/>
</svg>
