<svg width="62" height="62" viewBox="0 0 62 62" fill="none" xmlns="http://www.w3.org/2000/svg">
<path d="M7.46045 8H18.6264L18.2935 4H7.79345L7.46045 8Z" fill="#E1B0C4"/>
<path d="M38.2935 22H51.7935L51.4605 18H38.6265L38.2935 22Z" fill="#E1B0C4"/>
<path d="M56.0435 40H34.0435V54H56.0435V40Z" fill="#E1B0C4"/>
<path d="M21.1306 26L18.9635 0H7.12354L4.95654 26H10.0435V48.136C8.88954 48.49 8.04354 49.552 8.04354 50.82C8.04354 51.006 8.06254 51.192 8.09854 51.374L10.2245 62H15.8635L17.9895 51.373C18.0245 51.191 18.0436 51.005 18.0436 50.819C18.0436 49.551 17.1975 48.489 16.0435 48.135V26H21.1306ZM8.96354 2H17.1235L18.9565 24H7.13054L8.96354 2ZM16.0275 50.98L14.2245 60H11.8635L10.0595 50.98C10.0485 50.928 10.0435 50.874 10.0435 50.819C10.0435 50.367 10.4105 50 10.8625 50H15.2235C15.6765 50 16.0435 50.367 16.0435 50.819C16.0435 50.874 16.0385 50.928 16.0275 50.98ZM14.0435 48H12.0435V26H14.0435V48Z" fill="#333333"/>
<path d="M51.9665 28.795L50.0435 28.246V26H53.1305L50.9635 0H39.1235L36.9565 26H40.0435V28.246L38.1205 28.795C35.1315 29.648 33.0435 32.416 33.0435 35.525V51.292C33.0435 53.96 34.5255 56.358 36.9125 57.553L37.0435 57.618V62H53.0435V57.618L53.1745 57.553C55.5615 56.358 57.0435 53.96 57.0435 51.292V35.525C57.0435 32.416 54.9555 29.648 51.9665 28.795ZM40.9635 2H49.1235L50.9565 24H39.1305L40.9635 2ZM55.0435 51.292C55.0435 53.197 53.9845 54.911 52.2795 55.764L51.0435 56.382V60H39.0435V56.382L37.8075 55.764C36.1025 54.911 35.0435 53.197 35.0435 51.292V35.525C35.0435 33.304 36.5345 31.328 38.6695 30.718L42.0435 29.754V26H48.0435V29.754L51.4175 30.719C53.5525 31.328 55.0435 33.305 55.0435 35.525V51.292Z" fill="#333333"/>
<path d="M39.3145 32.651C37.9785 32.985 37.0435 34.183 37.0435 35.562V38H39.0435V35.562C39.0435 35.102 39.3555 34.704 39.8005 34.591L42.2855 33.97L41.8015 32.031L39.3145 32.651Z" fill="#333333"/>
</svg>
