<svg width="62" height="62" viewBox="0 0 62 62" fill="none" xmlns="http://www.w3.org/2000/svg">
<g clip-path="url(#clip0)">
<path d="M58.8871 30.1385H50.9661V34.0991H58.8871V30.1385Z" fill="#E1B0C4"/>
<path d="M43.0451 30.1385H35.124V34.0991H43.0451V30.1385Z" fill="#E1B0C4"/>
<path d="M27.2028 28.1583H19.2817V32.1188H27.2028V28.1583Z" fill="#E1B0C4"/>
<path d="M11.3607 28.1583H3.4397V32.1188H11.3607V28.1583Z" fill="#E1B0C4"/>
<path d="M5.42 13.3063H9.38052L13.341 3.40504L1.45947 1.42477L5.42 13.3063Z" fill="#E1B0C4"/>
<path d="M21.262 13.3063H25.2226L29.1831 1.42477H17.3015L21.262 13.3063Z" fill="#E1B0C4"/>
<path d="M41.0648 1.42477H37.1043C36.0102 1.42477 35.124 2.31094 35.124 3.40504V9.34582C35.124 10.4399 36.0102 11.3261 37.1043 11.3261H41.0648C42.1589 11.3261 43.0451 10.4399 43.0451 9.34582V3.40504C43.0451 2.31094 42.1589 1.42477 41.0648 1.42477Z" fill="#E1B0C4"/>
<path d="M54.9266 1.42477C50.9661 1.42477 48.9858 3.40504 48.9858 3.40504L52.9464 15.2866H56.9069L60.8674 3.40504C60.8674 3.40504 58.8871 1.42477 54.9266 1.42477Z" fill="#E1B0C4"/>
<path d="M14.7173 2.63076L0 0.177216L4.42984 13.4667V26.178H2.44958V56.8721C2.44958 59.6019 4.67045 61.8227 7.40024 61.8227C10.13 61.8227 12.3509 59.6019 12.3509 56.8721V26.178H10.3706V13.4974L14.7173 2.63076ZM6.41011 3.25355V7.36556H8.39037V3.58425L11.9647 4.18031L8.71018 12.3162H6.13386L2.91891 2.67234L6.41011 3.25355ZM10.3706 56.8721C10.3706 58.5098 9.03791 59.8425 7.40024 59.8425C5.76256 59.8425 4.42984 58.5098 4.42984 56.8721V32.1188H8.39037V30.1386H4.42984V28.1583H10.3706V56.8721ZM6.41011 26.178V14.2965H8.39037V26.178H6.41011Z" fill="#333333"/>
<path d="M30.5564 0.434631H15.9282L20.2719 13.4667V26.178H18.2917V56.8721C18.2917 59.6019 20.5125 61.8227 23.2423 61.8227C25.9721 61.8227 28.193 59.6019 28.193 56.8721V26.178H26.2127V13.4667L30.5564 0.434631ZM22.2522 2.41489V7.36555H24.2324V2.41489H27.8098L24.5097 12.3162H21.9759L18.6748 2.41489H22.2522ZM26.2127 56.8721C26.2127 58.5098 24.88 59.8425 23.2423 59.8425C21.6046 59.8425 20.2719 58.5098 20.2719 56.8721V32.1188H24.2324V30.1386H20.2719V28.1583H26.2127V56.8721ZM22.2522 26.178V14.2965H24.2324V26.178H22.2522Z" fill="#333333"/>
<path d="M41.0647 0.434631H37.1042C35.4665 0.434631 34.1338 1.76735 34.1338 3.40502V9.34581C34.1338 10.635 34.9645 11.7241 36.1141 12.134V22.0274L34.1338 26.9781V56.8721C34.1338 59.6019 36.3547 61.8227 39.0844 61.8227C41.8142 61.8227 44.0351 59.6019 44.0351 56.8721V26.9781L42.0548 22.0274V12.134C43.2044 11.7241 44.0351 10.635 44.0351 9.34581V3.40502C44.0351 1.76735 42.7024 0.434631 41.0647 0.434631ZM37.7745 23.2076H40.3944L41.5825 26.178H36.5863L37.7745 23.2076ZM40.0746 21.2274H38.0943V12.3162H40.0746V21.2274ZM39.0844 59.8425C37.4468 59.8425 36.1141 58.5098 36.1141 56.8721V28.1583H42.0548V56.8721C42.0548 58.5098 40.7221 59.8425 39.0844 59.8425ZM42.0548 9.34581C42.0548 9.89236 41.6103 10.3359 41.0647 10.3359H37.1042C36.5586 10.3359 36.1141 9.89236 36.1141 9.34581V3.40502C36.1141 2.85847 36.5586 2.41489 37.1042 2.41489H38.0943V7.36555H40.0746V2.41489H41.0647C41.6103 2.41489 42.0548 2.85847 42.0548 3.40502V9.34581Z" fill="#333333"/>
<path d="M57.8969 15.447L62 3.1367L61.5673 2.70401C61.4743 2.61193 59.2474 0.434631 54.9265 0.434631C50.6056 0.434631 48.3788 2.61193 48.2857 2.705L47.853 3.13769L51.9561 15.447V22.0274L49.9759 26.9781V56.8721C49.9759 59.6019 52.1967 61.8227 54.9265 61.8227C57.6563 61.8227 59.8772 59.6019 59.8772 56.8721V26.9781L57.8969 22.0274V15.447ZM55.9166 16.2767V21.2274H53.9364V16.2767H55.9166ZM53.6166 23.2076H56.2365L57.4246 26.178H52.4284L53.6166 23.2076ZM53.9364 2.4644V7.36555H55.9166V2.4644C57.8276 2.64658 59.088 3.31888 59.7098 3.74563L56.1929 14.2965H53.6592L50.1432 3.74662C50.768 3.31789 52.0274 2.64658 53.9364 2.4644ZM54.9265 59.8425C53.2888 59.8425 51.9561 58.5098 51.9561 56.8721V28.1583H57.8969V56.8721C57.8969 58.5098 56.5642 59.8425 54.9265 59.8425Z" fill="#333333"/>
<path d="M55.9165 55.882H53.9363V57.8623H55.9165V55.882Z" fill="#333333"/>
<path d="M40.0745 55.882H38.0942V57.8623H40.0745V55.882Z" fill="#333333"/>
<path d="M24.2325 55.882H22.2522V57.8623H24.2325V55.882Z" fill="#333333"/>
<path d="M8.39042 55.882H6.41016V57.8623H8.39042V55.882Z" fill="#333333"/>
</g>
<defs>
<clipPath id="clip0">
<rect width="62" height="62" fill="white"/>
</clipPath>
</defs>
</svg>
