<svg width="10" height="13" viewBox="0 0 10 13" fill="none" xmlns="http://www.w3.org/2000/svg">
<path d="M5 6C5.55228 6 6 5.55228 6 5C6 4.44772 5.55228 4 5 4C4.44772 4 4 4.44772 4 5C4 5.55228 4.44772 6 5 6Z" fill="#F3D4DC"/>
<path d="M5 0C2.25 0 0 2.25 0 5C0 6.1 0.35 7.15 1 8L4.6 12.8C4.7 12.9 4.85 13 5 13C5.15 13 5.3 12.9 5.4 12.8L9 8C9.65 7.15 10 6.15 10 5C10 2.25 7.75 0 5 0ZM7.4 6.8L5.2 9.75L5.15 9.8C5.05 9.9 4.9 9.85 4.8 9.75L2.6 6.8C2.2 6.3 2 5.65 2 5C2 3.35 3.35 2 5 2C6.65 2 8 3.35 8 5C8 5.65 7.8 6.3 7.4 6.8Z" fill="#F3D4DC"/>
</svg>
