<svg width="13" height="13" viewBox="0 0 13 13" fill="none" xmlns="http://www.w3.org/2000/svg">
<g clip-path="url(#clip0)">
<path d="M11.2481 0H1.75178C0.784316 0 0 0.784284 0 1.75178V11.2482C0 12.2157 0.784284 12.9999 1.75178 12.9999H6.43532L6.4433 8.35446H5.23641C5.07956 8.35446 4.95226 8.22764 4.95166 8.07079L4.94587 6.57337C4.94526 6.41566 5.07295 6.2875 5.23065 6.2875H6.43535V4.84061C6.43535 3.1615 7.46084 2.24721 8.95872 2.24721H10.1878C10.3451 2.24721 10.4726 2.3747 10.4726 2.53199V3.79463C10.4726 3.95186 10.3452 4.07931 10.188 4.07941L9.4337 4.07976C8.61911 4.07976 8.46138 4.46685 8.46138 5.03491V6.28754H10.2513C10.4219 6.28754 10.5542 6.43646 10.5341 6.60583L10.3566 8.10326C10.3396 8.24656 10.2181 8.35453 10.0738 8.35453H8.46936L8.46138 13H11.2482C12.2156 13 12.9999 12.2157 12.9999 11.2483V1.75178C12.9999 0.784284 12.2156 0 11.2481 0Z" fill="#475993"/>
</g>
<defs>
<clipPath id="clip0">
<rect width="13" height="13" fill="white"/>
</clipPath>
</defs>
</svg>
