<svg width="13" height="13" viewBox="0 0 13 13" fill="none" xmlns="http://www.w3.org/2000/svg">
<path d="M5.32558 0.106861C6.46676 -0.0876394 7.67971 -0.0358223 8.75999 0.422267C8.51421 0.444796 8.26915 0.477088 8.02337 0.497364C5.84252 0.72716 3.819 2.33197 3.16358 4.52029C3.00336 5.00992 2.98958 5.52959 2.92433 6.03724C2.97943 6.64853 3.06353 7.27333 3.33251 7.82905C3.73272 8.66713 4.43164 9.37078 5.28933 9.68619C6.06438 9.99258 6.9547 9.98733 7.71814 9.64489C8.78392 9.19656 9.58433 8.12718 9.71484 6.94066C9.78589 6.11384 9.67061 5.2247 9.17977 4.54432C8.70054 3.78209 7.84864 3.4006 7.03227 3.16705C6.98007 2.57604 7.17075 1.98728 7.50209 1.51042C7.86532 1.01853 8.39531 0.661825 8.97024 0.501118C11.1409 1.31366 12.7744 3.49823 12.9847 5.88254C12.9992 6.5096 13.0361 7.14792 12.8948 7.76296C12.6185 9.2296 11.8123 10.5678 10.6958 11.5073C9.73006 12.3176 8.53741 12.8387 7.30271 12.9799C6.74734 13.0092 6.19053 13.0047 5.63517 12.9777C4.46934 12.7959 3.33396 12.3258 2.40594 11.5644C0.863831 10.3193 -0.062016 8.30441 0.00323549 6.27755C0.0634119 4.97388 0.510747 3.68972 1.27637 2.65189C2.26021 1.32192 3.73345 0.40124 5.32558 0.106861Z" fill="#E8303F"/>
</svg>
