<svg width="13" height="13" viewBox="0 0 13 13" fill="none" xmlns="http://www.w3.org/2000/svg">
<path d="M9.12723 0H3.87277C1.73732 0 0 1.73732 0 3.87277V9.12723C0 11.2627 1.73732 13 3.87277 13H9.12723C11.2627 13 13 11.2627 13 9.12723V3.87277C13 1.73732 11.2627 0 9.12723 0ZM11.6922 9.12723C11.6922 10.5438 10.5438 11.6922 9.12723 11.6922H3.87277C2.45619 11.6922 1.3078 10.5438 1.3078 9.12723V3.87277C1.3078 2.45616 2.45619 1.3078 3.87277 1.3078H9.12723C10.5438 1.3078 11.6922 2.45616 11.6922 3.87277V9.12723Z" fill="url(#paint0_linear)"/>
<path d="M6.49996 3.13773C4.646 3.13773 3.1377 4.64603 3.1377 6.49996C3.1377 8.3539 4.646 9.86223 6.49996 9.86223C8.35391 9.86223 9.86222 8.35392 9.86222 6.49996C9.86222 4.64601 8.35391 3.13773 6.49996 3.13773ZM6.49996 8.55445C5.3653 8.55445 4.4455 7.63465 4.4455 6.49999C4.4455 5.36533 5.36532 4.44553 6.49996 4.44553C7.63462 4.44553 8.55442 5.36533 8.55442 6.49999C8.55442 7.63462 7.63459 8.55445 6.49996 8.55445Z" fill="url(#paint1_linear)"/>
<path d="M9.86866 3.96867C10.3136 3.96867 10.6743 3.60796 10.6743 3.163C10.6743 2.71804 10.3136 2.35733 9.86866 2.35733C9.4237 2.35733 9.06299 2.71804 9.06299 3.163C9.06299 3.60796 9.4237 3.96867 9.86866 3.96867Z" fill="url(#paint2_linear)"/>
<defs>
<linearGradient id="paint0_linear" x1="6.5" y1="12.9622" x2="6.5" y2="0.100973" gradientUnits="userSpaceOnUse">
<stop stop-color="#E09B3D"/>
<stop offset="0.3" stop-color="#C74C4D"/>
<stop offset="0.6" stop-color="#C21975"/>
<stop offset="1" stop-color="#7024C4"/>
</linearGradient>
<linearGradient id="paint1_linear" x1="6.49996" y1="12.9621" x2="6.49996" y2="0.100962" gradientUnits="userSpaceOnUse">
<stop stop-color="#E09B3D"/>
<stop offset="0.3" stop-color="#C74C4D"/>
<stop offset="0.6" stop-color="#C21975"/>
<stop offset="1" stop-color="#7024C4"/>
</linearGradient>
<linearGradient id="paint2_linear" x1="9.86865" y1="12.9622" x2="9.86865" y2="0.10099" gradientUnits="userSpaceOnUse">
<stop stop-color="#E09B3D"/>
<stop offset="0.3" stop-color="#C74C4D"/>
<stop offset="0.6" stop-color="#C21975"/>
<stop offset="1" stop-color="#7024C4"/>
</linearGradient>
</defs>
</svg>
