<svg width="67" height="47" viewBox="0 0 67 47" fill="none" xmlns="http://www.w3.org/2000/svg">
<path d="M14.7073 16.7337C22.7939 16.7337 29.3493 23.2892 29.3493 31.3756C29.3493 39.462 22.7939 46.0175 14.7073 46.0175C6.62078 46.0175 0.0653659 39.462 0.0653659 31.3756L0 29.2839C0 13.1108 13.1108 0 29.2839 0V8.36683C23.6968 8.36683 18.444 10.5426 14.4933 14.4933C13.7328 15.2539 13.0388 16.0631 12.4127 16.9131C13.1604 16.7955 13.9266 16.7337 14.7073 16.7337ZM52.358 16.7337C60.4445 16.7337 67 23.2892 67 31.3756C67 39.462 60.4445 46.0175 52.358 46.0175C44.2716 46.0175 37.7161 39.462 37.7161 31.3756L37.6507 29.2839C37.6507 13.1108 50.7614 0 66.9346 0V8.36683C61.3477 8.36683 56.0946 10.5426 52.144 14.4933C51.3834 15.2539 50.6894 16.0631 50.0633 16.9131C50.811 16.7955 51.5772 16.7337 52.358 16.7337Z" fill="#F5F5F5"/>
</svg>
