<svg width="10" height="10" viewBox="0 0 10 10" fill="none" xmlns="http://www.w3.org/2000/svg">
<path d="M0.15 5.35L4.65 9.85C4.75 9.95 4.85 10 5 10C5.15 10 5.25 9.95 5.35 9.85L9.85 5.35C9.95 5.25 10 5.15 10 5C10 4.85 9.95 4.75 9.85 4.65L9.15 3.95C8.95 3.75 8.65 3.75 8.45 3.95L6.45 5.95C6.3 6.1 6 6 6 5.75V0.5C6 0.2 5.8 0 5.5 0H4.5C4.2 0 4 0.2 4 0.5V5.8C4 6 3.75 6.15 3.55 6L1.55 4C1.35 3.8 1.05 3.8 0.85 4L0.15 4.7C0.0499996 4.8 0 4.9 0 5.05C0 5.15 0.0499996 5.25 0.15 5.35Z" fill="#CCCCCC"/>
</svg>
