<svg width="13" height="13" viewBox="0 0 13 13" fill="none" xmlns="http://www.w3.org/2000/svg">
<path d="M0.00239565 6.67642C0.946923 5.16387 2.36282 4.00406 4.03175 3.37585C4.01292 3.03371 4.11758 2.69618 4.32667 2.42471C4.53576 2.15324 4.83538 1.96587 5.17098 1.89671C5.50659 1.82756 5.85587 1.88121 6.15525 2.04791C6.45463 2.21461 6.6842 2.48326 6.80217 2.80497C6.92014 3.12668 6.91866 3.48006 6.79802 3.80078C6.67737 4.12149 6.44557 4.38823 6.14482 4.55242C5.84406 4.71662 5.49434 4.76736 5.15932 4.69541C4.8243 4.62346 4.52626 4.4336 4.31944 4.1604C3.38582 4.87203 2.61749 5.77753 2.06735 6.81455C1.5172 7.85157 1.19831 8.99549 1.13262 10.1676C1.44341 10.6212 1.81052 11.0336 2.22514 11.3948C2.82242 10.0951 3.69837 8.94269 4.79084 8.01939C5.88332 7.09608 7.16557 6.42446 8.54665 6.05216C8.54079 5.71549 8.65393 5.38755 8.86613 5.12611C9.07833 4.86467 9.37598 4.6865 9.70665 4.62297C10.0373 4.55945 10.3798 4.61465 10.6738 4.77885C10.9677 4.94305 11.1943 5.20573 11.3137 5.5206C11.433 5.83547 11.4373 6.18235 11.326 6.50013C11.2147 6.81791 10.9948 7.0862 10.705 7.25776C10.4153 7.42932 10.0743 7.49314 9.74213 7.43797C9.40997 7.3828 9.10792 7.21219 8.8892 6.95618C7.75134 7.48802 6.75875 8.28677 5.99582 9.28452C5.23289 10.2823 4.7222 11.4495 4.50716 12.687C5.82022 13.1099 7.23379 13.1041 8.54334 12.6705C9.8529 12.2368 10.9905 11.3978 11.7916 10.2747C12.5928 9.15168 13.0158 7.80288 12.9996 6.42348C12.9833 5.04408 12.5286 3.70562 11.7013 2.60175C10.874 1.49787 9.71692 0.685838 8.39751 0.283131C7.0781 -0.119577 5.66479 -0.0920727 4.36205 0.361664C3.05931 0.815401 1.93471 1.67184 1.15096 2.80707C0.367209 3.94229 -0.0350454 5.29743 0.00239565 6.67642Z" fill="#FFCB08"/>
</svg>
