<svg width="123" height="45" viewBox="0 0 123 45" fill="none" xmlns="http://www.w3.org/2000/svg">
<path d="M30.004 33.76L30.028 34.66H30.052C30.308 34.34 30.616 34.092 30.976 33.916C31.336 33.732 31.712 33.64 32.104 33.64C33.464 33.64 34.144 34.56 34.144 36.4V40H32.968V36.52C32.968 35.792 32.872 35.296 32.68 35.032C32.496 34.76 32.164 34.624 31.684 34.624C31.276 34.624 30.904 34.828 30.568 35.236C30.232 35.636 30.064 36.104 30.064 36.64V40H28.864V33.76H30.004ZM39.7732 36.904H39.1732C38.4532 36.904 37.8972 37.028 37.5052 37.276C37.1212 37.524 36.9292 37.852 36.9292 38.26C36.9292 38.556 37.0172 38.792 37.1932 38.968C37.3772 39.136 37.6172 39.22 37.9132 39.22C38.4172 39.22 38.8532 39.048 39.2212 38.704C39.5892 38.352 39.7732 37.924 39.7732 37.42V36.904ZM35.7532 38.32C35.7532 37.624 36.0452 37.068 36.6292 36.652C37.2212 36.228 38.0692 36.016 39.1732 36.016H39.7732V35.956C39.7732 35.452 39.6692 35.1 39.4612 34.9C39.2612 34.7 38.9052 34.6 38.3932 34.6C37.6332 34.6 36.9332 34.78 36.2932 35.14L36.1132 34.18C36.7852 33.82 37.5452 33.64 38.3932 33.64C39.2972 33.64 39.9532 33.824 40.3612 34.192C40.7692 34.552 40.9732 35.128 40.9732 35.92V38.32C40.9732 38.888 41.0332 39.448 41.1532 40H40.0132C39.9492 39.648 39.9132 39.328 39.9052 39.04H39.8812C39.6572 39.376 39.3452 39.64 38.9452 39.832C38.5532 40.024 38.1092 40.12 37.6132 40.12C37.0452 40.12 36.5932 39.96 36.2572 39.64C35.9212 39.32 35.7532 38.88 35.7532 38.32ZM43.4163 32.32V31H44.6883V32.32H43.4163ZM43.4163 40V33.76H44.6883V40H43.4163ZM47.2657 40V31H48.5377V40H47.2657ZM53.0895 34.6C52.2895 34.6 51.8895 34.86 51.8895 35.38C51.8895 35.628 51.9815 35.824 52.1655 35.968C52.3575 36.104 52.6855 36.208 53.1495 36.28C53.9895 36.408 54.5895 36.636 54.9495 36.964C55.3095 37.284 55.4895 37.736 55.4895 38.32C55.4895 38.88 55.2775 39.32 54.8535 39.64C54.4375 39.96 53.8495 40.12 53.0895 40.12C52.2015 40.12 51.4015 39.92 50.6895 39.52L50.9295 38.56C51.5855 38.96 52.3055 39.16 53.0895 39.16C53.8735 39.16 54.2655 38.88 54.2655 38.32C54.2655 38.048 54.1735 37.84 53.9895 37.696C53.8135 37.544 53.4935 37.432 53.0295 37.36C52.2055 37.224 51.6095 37 51.2415 36.688C50.8735 36.368 50.6895 35.932 50.6895 35.38C50.6895 34.852 50.8975 34.432 51.3135 34.12C51.7295 33.8 52.3215 33.64 53.0895 33.64C53.8815 33.64 54.6015 33.8 55.2495 34.12L55.0095 35.08C54.4175 34.76 53.7775 34.6 53.0895 34.6ZM63.5028 36.112C62.9588 36.472 62.5788 36.792 62.3628 37.072C62.1468 37.352 62.0388 37.628 62.0388 37.9C62.0388 38.692 62.5788 39.088 63.6588 39.088C64.0828 39.088 64.4508 39.048 64.7628 38.968C65.0828 38.88 65.4428 38.724 65.8428 38.5L63.5028 36.112ZM64.5108 35.476L66.2988 37.324V35.056H67.5228V38.596L68.8788 40H67.3188L66.6708 39.34C65.6388 39.86 64.6148 40.12 63.5988 40.12C61.6788 40.12 60.7188 39.4 60.7188 37.96C60.7188 37.528 60.8668 37.108 61.1628 36.7C61.4668 36.292 61.9948 35.836 62.7468 35.332L62.6268 35.212C61.8348 34.412 61.4388 33.688 61.4388 33.04C61.4388 32.456 61.6588 31.992 62.0988 31.648C62.5388 31.296 63.1588 31.12 63.9588 31.12C64.7668 31.12 65.3788 31.284 65.7948 31.612C66.2108 31.94 66.4188 32.396 66.4188 32.98C66.4188 33.412 66.2748 33.82 65.9868 34.204C65.7068 34.588 65.2148 35.012 64.5108 35.476ZM63.7548 34.684C64.3468 34.292 64.7348 33.988 64.9188 33.772C65.1028 33.548 65.1948 33.304 65.1948 33.04C65.1948 32.432 64.7828 32.128 63.9588 32.128C63.5668 32.128 63.2628 32.212 63.0468 32.38C62.8388 32.54 62.7348 32.76 62.7348 33.04C62.7348 33.28 62.7908 33.5 62.9028 33.7C63.0228 33.892 63.3068 34.22 63.7548 34.684ZM73.8635 31H75.0635V34.6H75.0875C75.5515 33.96 76.1835 33.64 76.9835 33.64C77.7755 33.64 78.3915 33.916 78.8315 34.468C79.2795 35.012 79.5035 35.816 79.5035 36.88C79.5035 37.928 79.2715 38.732 78.8075 39.292C78.3515 39.844 77.7435 40.12 76.9835 40.12C76.1515 40.12 75.5075 39.78 75.0515 39.1H75.0275L75.0035 40H73.8635V31ZM78.3275 36.88C78.3275 36.12 78.1835 35.552 77.8955 35.176C77.6075 34.792 77.2035 34.6 76.6835 34.6C76.2115 34.6 75.8235 34.8 75.5195 35.2C75.2155 35.592 75.0635 36.132 75.0635 36.82V36.94C75.0635 37.636 75.2155 38.18 75.5195 38.572C75.8235 38.964 76.2115 39.16 76.6835 39.16C77.1795 39.16 77.5755 38.964 77.8715 38.572C78.1755 38.18 78.3275 37.616 78.3275 36.88ZM85.1899 33.64V34.648C84.3099 34.648 83.6139 34.888 83.1019 35.368C82.5899 35.84 82.3339 36.464 82.3339 37.24V40H81.1099V33.76H82.2739L82.2979 34.96H82.3219C83.0579 34.08 84.0139 33.64 85.1899 33.64ZM87.078 34.516C87.63 33.932 88.358 33.64 89.262 33.64C90.166 33.64 90.89 33.932 91.434 34.516C91.986 35.1 92.262 35.888 92.262 36.88C92.262 37.872 91.986 38.66 91.434 39.244C90.89 39.828 90.166 40.12 89.262 40.12C88.358 40.12 87.63 39.828 87.078 39.244C86.534 38.66 86.262 37.872 86.262 36.88C86.262 35.888 86.534 35.1 87.078 34.516ZM87.966 38.56C88.286 38.96 88.718 39.16 89.262 39.16C89.806 39.16 90.238 38.96 90.558 38.56C90.878 38.16 91.038 37.6 91.038 36.88C91.038 36.16 90.878 35.6 90.558 35.2C90.238 34.8 89.806 34.6 89.262 34.6C88.718 34.6 88.286 34.8 87.966 35.2C87.646 35.6 87.486 36.16 87.486 36.88C87.486 37.6 87.646 38.16 87.966 38.56ZM94.6794 33.76L95.8074 38.92H95.8314L96.8994 33.76H98.5794L99.6474 38.92H99.6714L100.799 33.76H102.095L100.415 40H98.7954L97.7274 34.96H97.7034L96.6354 40H95.0154L93.3354 33.76H94.6794ZM105.634 34.6C104.834 34.6 104.434 34.86 104.434 35.38C104.434 35.628 104.526 35.824 104.71 35.968C104.902 36.104 105.23 36.208 105.694 36.28C106.534 36.408 107.134 36.636 107.494 36.964C107.854 37.284 108.034 37.736 108.034 38.32C108.034 38.88 107.822 39.32 107.398 39.64C106.982 39.96 106.394 40.12 105.634 40.12C104.746 40.12 103.946 39.92 103.234 39.52L103.474 38.56C104.13 38.96 104.85 39.16 105.634 39.16C106.418 39.16 106.81 38.88 106.81 38.32C106.81 38.048 106.718 37.84 106.534 37.696C106.358 37.544 106.038 37.432 105.574 37.36C104.75 37.224 104.154 37 103.786 36.688C103.418 36.368 103.234 35.932 103.234 35.38C103.234 34.852 103.442 34.432 103.858 34.12C104.274 33.8 104.866 33.64 105.634 33.64C106.426 33.64 107.146 33.8 107.794 34.12L107.554 35.08C106.962 34.76 106.322 34.6 105.634 34.6Z" fill="#CCCCCC"/>
<path d="M7.752 26.24C5.912 26.24 4.552 25.456 3.672 23.888H3.624L3.6 26H1.92V8H3.672V15.56H3.72C4.6 14.04 5.944 13.28 7.752 13.28C9.32 13.28 10.552 13.84 11.448 14.96C12.344 16.064 12.792 17.664 12.792 19.76C12.792 21.824 12.336 23.424 11.424 24.56C10.512 25.68 9.288 26.24 7.752 26.24ZM11.064 19.76C11.064 18.128 10.736 16.88 10.08 16.016C9.44 15.152 8.536 14.72 7.368 14.72C6.28 14.72 5.392 15.152 4.704 16.016C4.016 16.88 3.672 18.072 3.672 19.592V19.928C3.672 21.48 4.016 22.68 4.704 23.528C5.392 24.376 6.28 24.8 7.368 24.8C8.504 24.8 9.4 24.368 10.056 23.504C10.728 22.624 11.064 21.376 11.064 19.76ZM16.8694 20.432C16.9014 21.792 17.3174 22.864 18.1174 23.648C18.9174 24.432 19.9574 24.824 21.2374 24.824C22.4694 24.824 23.6934 24.504 24.9094 23.864L25.3894 25.232C24.0454 25.904 22.6054 26.24 21.0694 26.24C19.2774 26.24 17.8294 25.656 16.7254 24.488C15.6214 23.32 15.0694 21.744 15.0694 19.76C15.0694 17.744 15.5814 16.16 16.6054 15.008C17.6454 13.856 19.0534 13.28 20.8294 13.28C22.5574 13.28 23.8934 13.832 24.8374 14.936C25.7974 16.024 26.2774 17.592 26.2774 19.64C26.2774 19.848 26.2614 20.112 26.2294 20.432H16.8694ZM16.8694 19.04H24.5494C24.5334 17.648 24.1974 16.576 23.5414 15.824C22.8854 15.072 21.9814 14.696 20.8294 14.696C19.6294 14.696 18.6774 15.08 17.9734 15.848C17.2854 16.6 16.9174 17.664 16.8694 19.04Z" fill="#999999"/>
<path d="M32.5596 15.536H33.4476C34.9356 15.536 36.0076 15.336 36.6636 14.936C37.3356 14.52 37.6716 13.912 37.6716 13.112C37.6716 12.344 37.3996 11.776 36.8556 11.408C36.3276 11.04 35.4476 10.856 34.2156 10.856C33.6076 10.856 33.0556 10.904 32.5596 11V15.536ZM32.5596 18.032V23.48C33.1196 23.576 33.7196 23.624 34.3596 23.624C35.6876 23.624 36.6556 23.384 37.2636 22.904C37.8876 22.408 38.1996 21.656 38.1996 20.648C38.1996 19.752 37.8476 19.096 37.1436 18.68C36.4396 18.248 35.2636 18.032 33.6156 18.032H32.5596ZM41.4156 20.96C41.4156 22.72 40.8396 24.04 39.6876 24.92C38.5356 25.8 36.7356 26.24 34.2876 26.24C32.5116 26.24 30.8316 26.12 29.2476 25.88V8.6C30.7516 8.36 32.3516 8.24 34.0476 8.24C38.5276 8.24 40.7676 9.704 40.7676 12.632C40.7676 13.624 40.4396 14.48 39.7836 15.2C39.1276 15.904 38.2556 16.36 37.1676 16.568V16.616C38.4796 16.792 39.5116 17.28 40.2636 18.08C41.0316 18.864 41.4156 19.824 41.4156 20.96ZM47.4904 11.192V15.488H54.5224V18.056H47.4904V23.288H55.0024V26H44.1304V8.48H55.0024V11.192H47.4904ZM57.3444 26L63.4164 8.48H67.0164L73.1124 26H69.5124L68.2644 21.776H62.0964L60.8244 26H57.3444ZM62.8404 19.208H67.4964L65.1924 11.432H65.1444L62.8404 19.208ZM77.9078 8.48V19.088C77.9078 22.016 79.0518 23.48 81.3398 23.48C83.6438 23.48 84.7958 22.016 84.7958 19.088V8.48H88.1078V18.872C88.1078 21.304 87.5158 23.144 86.3318 24.392C85.1638 25.624 83.4838 26.24 81.2918 26.24C79.0998 26.24 77.4198 25.624 76.2518 24.392C75.0838 23.144 74.4998 21.304 74.4998 18.872V8.48H77.9078ZM104.502 8.48V11.264H99.4856V26H96.0776V11.264H91.0616V8.48H104.502ZM110.261 8.48L114.197 16.328H114.245L118.181 8.48H121.973L115.925 19.04V26H112.421V19.04L106.373 8.48H110.261Z" fill="#D88EAD"/>
</svg>
